<svg width="314" height="212" viewBox="0 0 314 212" fill="none" xmlns="http://www.w3.org/2000/svg">
<g clip-path="url(#clip0_49_1146)" filter="url(#filter0_d_49_1146)">
<path d="M300.977 197.567H12.5457V198.184H300.977V197.567Z" fill="black"/>
<path d="M35.2316 85.6145L34.9897 86.1829L300.645 197.825L300.887 197.256L35.2316 85.6145Z" fill="black"/>
<path d="M300.977 85.563H12.5457V86.1801H300.977V85.563Z" fill="black"/>
<path d="M261.857 98.985C261.897 112.041 259.347 124.978 254.354 137.055C249.361 149.132 242.022 160.112 232.756 169.369C231.735 170.39 230.691 171.388 229.624 172.362C228.338 173.54 227.02 174.683 225.668 175.79C225.41 176.003 225.153 176.212 224.892 176.419C219.553 180.719 213.771 184.446 207.642 187.536C207.279 187.718 206.915 187.9 206.549 188.079C205.969 188.363 205.382 188.641 204.795 188.912C183.073 198.958 158.37 200.624 135.481 193.587C95.4084 181.226 66.2579 143.549 66.2579 98.985C66.2579 44.3681 110.044 0.0939941 164.058 0.0939941C218.071 0.0939941 261.857 44.3681 261.857 98.985Z" fill="#282828"/>
<path d="M185.832 78.2399L185.91 78.2369L185.604 77.5686C185.26 76.6219 184.839 75.7045 184.347 74.8252L175.363 55.2228C175.076 54.5971 174.612 54.0683 174.027 53.7012C173.442 53.334 172.762 53.1446 172.071 53.156L160.694 53.3444C159.958 53.3565 159.245 53.5954 158.651 54.028C158.058 54.4605 157.615 55.0654 157.382 55.7592L150.23 77.1073C149.995 77.7051 149.79 78.3146 149.618 78.9334L149.376 79.6582L149.433 79.656C148.77 82.4713 148.77 85.4007 149.434 88.2158C150.098 91.0308 151.406 93.6556 153.258 95.8854C155.11 98.1152 157.456 99.8898 160.111 101.071C162.767 102.252 165.661 102.808 168.568 102.695C171.475 102.581 174.317 101.803 176.871 100.419C179.426 99.0351 181.624 97.0837 183.295 94.7169C184.966 92.35 186.064 89.6316 186.504 86.7736C186.945 83.9155 186.715 80.9951 185.832 78.2399H185.832Z" fill="#F1B91D"/>
<path d="M164.63 58.1384L161.05 77.5876L161.454 77.6611L165.034 58.2118L164.63 58.1384Z" fill="black"/>
<path d="M168.932 58.0666L168.531 58.1533L172.757 77.4741L173.158 77.3874L168.932 58.0666Z" fill="black"/>
<path d="M159.454 43.7717L174.032 43.5303C174.141 43.5285 174.246 43.5698 174.325 43.6451C174.403 43.7203 174.448 43.8234 174.45 43.9316C174.451 44.0399 174.41 44.1444 174.334 44.2222C174.258 44.3 174.155 44.3448 174.046 44.3466L159.468 44.5879C159.414 44.5888 159.36 44.5791 159.31 44.5594C159.26 44.5398 159.214 44.5105 159.175 44.4732C159.136 44.4359 159.105 44.3914 159.084 44.3423C159.063 44.2931 159.051 44.2402 159.05 44.1866C159.049 44.133 159.059 44.0798 159.079 44.0299C159.099 43.9801 159.128 43.9346 159.166 43.896C159.203 43.8575 159.248 43.8267 159.297 43.8054C159.347 43.784 159.4 43.7726 159.454 43.7717Z" fill="black"/>
<path d="M159.608 46.8308L174.186 46.5894C174.295 46.5876 174.4 46.6289 174.479 46.7041C174.557 46.7794 174.602 46.8825 174.604 46.9907C174.606 47.099 174.564 47.2035 174.488 47.2813C174.413 47.3591 174.309 47.4038 174.2 47.4056L159.622 47.647C159.513 47.6488 159.408 47.6075 159.329 47.5323C159.251 47.457 159.206 47.3539 159.204 47.2457C159.202 47.1375 159.244 47.0329 159.32 46.9551C159.395 46.8773 159.499 46.8326 159.608 46.8308Z" fill="black"/>
<path d="M159.762 49.8899L174.34 49.6485C174.449 49.6467 174.554 49.688 174.633 49.7632C174.711 49.8385 174.756 49.9416 174.758 50.0498C174.759 50.158 174.718 50.2626 174.642 50.3404C174.566 50.4182 174.463 50.4629 174.354 50.4647L159.776 50.7061C159.667 50.7079 159.561 50.6666 159.483 50.5914C159.405 50.5161 159.36 50.413 159.358 50.3048C159.356 50.1965 159.398 50.092 159.474 50.0142C159.549 49.9364 159.653 49.8917 159.762 49.8899Z" fill="black"/>
<path d="M166.694 40.7401C163.803 40.788 161.485 42.4284 161.518 44.4041L171.99 44.2308C171.957 42.255 169.586 40.6922 166.694 40.7401Z" fill="black"/>
<path d="M168.306 80.46C168.877 80.4984 169.418 80.7283 169.841 81.1121C169.949 81.2013 170.056 81.2948 170.163 81.3885C170.5 81.7388 170.914 82.0079 171.372 82.1752C172.376 82.4474 173.366 81.6589 174.203 80.8516L174.489 81.1442C173.57 82.032 172.468 82.8952 171.264 82.5691C170.744 82.3872 170.274 82.0877 169.891 81.6944C169.787 81.6034 169.684 81.5127 169.579 81.4261C169.236 81.1433 168.573 80.7032 167.984 80.9314C167.739 81.0499 167.522 81.2167 167.344 81.4216C167.207 81.5653 167.059 81.698 166.9 81.8187C166.577 82.0469 166.193 82.175 165.796 82.1867C165.399 82.1984 165.008 82.0933 164.672 81.8846C164.551 81.8044 164.434 81.7176 164.323 81.6247C164.14 81.4446 163.912 81.3159 163.663 81.2516C163.314 81.203 162.997 81.4506 162.661 81.7124C162.343 82.0195 161.937 82.2201 161.499 82.2862C161.484 82.2869 161.469 82.2875 161.454 82.2877C160.636 82.3013 160.117 81.4877 159.796 80.8692L160.161 80.6822C160.597 81.5229 161.018 81.9062 161.477 81.8785C161.829 81.8114 162.153 81.6418 162.408 81.3913C162.796 81.0883 163.199 80.7749 163.72 80.8473C164.045 80.9176 164.343 81.077 164.581 81.3074C164.681 81.3908 164.785 81.4688 164.894 81.5411C165.161 81.7038 165.47 81.7855 165.784 81.7762C166.097 81.7669 166.401 81.6671 166.658 81.489C166.799 81.3806 166.931 81.2616 167.054 81.1331C167.27 80.8866 167.536 80.6883 167.834 80.5512C167.985 80.493 168.144 80.4622 168.306 80.46Z" fill="black"/>
<path d="M167.157 0H166.73V40.7233H167.157V0Z" fill="black"/>
<path d="M295.977 70.5567C293.375 80.1174 284.461 86.0385 284.461 86.0385C284.461 86.0385 279.766 76.4588 282.368 66.8981C284.971 57.3374 293.885 51.4163 293.885 51.4163C293.885 51.4163 298.58 60.996 295.977 70.5567Z" fill="#73F9D9"/>
<path d="M272.302 70.5567C274.904 80.1174 283.818 86.0385 283.818 86.0385C283.818 86.0385 288.513 76.4588 285.911 66.8981C283.308 57.3374 274.394 51.4163 274.394 51.4163C274.394 51.4163 269.699 60.996 272.302 70.5567Z" fill="#73F9D9"/>
<path d="M276.126 68.502C283.267 75.4106 284.139 86.0307 284.139 86.0307C284.139 86.0307 273.434 85.4498 266.292 78.5412C259.151 71.6326 258.279 61.0125 258.279 61.0125C258.279 61.0125 268.985 61.5934 276.126 68.502Z" fill="black"/>
<path d="M292.153 68.502C285.012 75.4106 284.14 86.0307 284.14 86.0307C284.14 86.0307 294.845 85.4498 301.987 78.5412C309.128 71.6326 310 61.0125 310 61.0125C310 61.0125 299.294 61.5934 292.153 68.502Z" fill="#282828"/>
<path d="M41.6981 182.252C39.0956 191.813 30.1816 197.734 30.1816 197.734C30.1816 197.734 25.487 188.155 28.0895 178.594C30.6919 169.033 39.6059 163.112 39.6059 163.112C39.6059 163.112 44.3005 172.692 41.6981 182.252Z" fill="#73F9D9"/>
<path d="M18.023 182.252C20.6254 191.813 29.5394 197.734 29.5394 197.734C29.5394 197.734 34.234 188.155 31.6315 178.594C29.0291 169.033 20.1151 163.112 20.1151 163.112C20.1151 163.112 15.4205 172.692 18.023 182.252Z" fill="#73F9D9"/>
<path d="M21.8471 180.198C28.9883 187.106 29.8605 197.727 29.8605 197.727C29.8605 197.727 19.1546 197.146 12.0134 190.237C4.87224 183.328 4 172.708 4 172.708C4 172.708 14.7059 173.289 21.8471 180.198Z" fill="black"/>
<path d="M37.8739 180.198C30.7327 187.106 29.8605 197.727 29.8605 197.727C29.8605 197.727 40.5664 197.146 47.7076 190.237C54.8487 183.328 55.721 172.708 55.721 172.708C55.721 172.708 45.0151 173.289 37.8739 180.198Z" fill="black"/>
<path d="M212.124 93.9304C215.423 93.9304 218.096 91.2733 218.096 87.9956C218.096 84.7179 215.423 82.0608 212.124 82.0608C208.826 82.0608 206.153 84.7179 206.153 87.9956C206.153 91.2733 208.826 93.9304 212.124 93.9304Z" fill="black"/>
<path d="M205.726 85.4522C205.726 83.9884 206.271 82.5763 207.255 81.4873C208.239 80.3983 209.594 79.7092 211.058 79.5524C210.224 79.4619 209.38 79.547 208.582 79.8022C207.783 80.0574 207.047 80.477 206.423 81.0336C205.798 81.5902 205.299 82.2714 204.957 83.0327C204.615 83.794 204.438 84.6184 204.438 85.4522C204.438 86.2859 204.615 87.1103 204.957 87.8716C205.299 88.6329 205.798 89.3141 206.423 89.8707C207.047 90.4273 207.783 90.8469 208.582 91.1021C209.38 91.3573 210.224 91.4424 211.058 91.3519C209.594 91.1951 208.239 90.506 207.255 89.417C206.271 88.328 205.726 86.9159 205.726 85.4522Z" fill="black"/>
<path d="M206.153 87.9956C206.153 87.9956 205.225 92.2348 211.021 93.9304L206.153 87.9956Z" fill="#0C97AA"/>
<path d="M214.594 128.307C225.667 128.307 234.642 119.387 234.642 108.383C234.642 97.3798 225.667 88.4595 214.594 88.4595C203.522 88.4595 194.546 97.3798 194.546 108.383C194.546 119.387 203.522 128.307 214.594 128.307Z" fill="black"/>
<path d="M225.668 175.79C225.41 176.003 225.153 176.212 224.892 176.419C219.553 180.719 213.77 184.446 207.642 187.536C207.279 187.718 206.915 187.9 206.549 188.079C205.969 188.363 205.382 188.641 204.795 188.912L194.518 185.509L194.636 183.062V183.053L195.083 173.722L195.235 170.532L225.668 175.79Z" fill="#A0616A"/>
<path d="M206.549 188.079C205.968 188.363 205.382 188.641 204.795 188.912C200.78 190.778 196.64 192.362 192.404 193.655C192.382 193.593 192.37 193.529 192.366 193.464L194.518 183.013L194.636 183.062L206.549 188.079Z" fill="#2F2E41"/>
<path d="M209.59 129.522C216.922 129.522 222.866 123.615 222.866 116.328C222.866 109.041 216.922 103.134 209.59 103.134C202.257 103.134 196.313 109.041 196.313 116.328C196.313 123.615 202.257 129.522 209.59 129.522Z" fill="#A0616A"/>
<path d="M220.354 117.041C220.354 117.041 222.507 127.739 226.454 130.235L204.566 155.911L196.313 148.065L202.413 137.367C202.413 137.367 209.231 133.445 207.078 128.096L220.354 117.041Z" fill="#A0616A"/>
<path d="M246.33 152.473C242.44 158.58 237.888 164.246 232.756 169.369C232.536 164.586 232.058 160.643 231.12 159.477C231.118 159.477 231.115 159.475 231.114 159.474L219.636 155.91C219.636 155.91 222.147 132.373 228.248 131.306C228.248 131.306 229.133 131.485 230.508 131.898C234.942 133.225 244.461 136.965 245.83 144.854C246.22 147.375 246.387 149.924 246.33 152.473Z" fill="#A0616A"/>
<path d="M203.693 137.03C203.693 137.03 192.928 136.674 186.11 145.232C179.293 153.79 162.787 160.209 162.787 160.209L121.522 176.256C121.522 176.256 113.987 163.062 109.322 167.698C104.658 172.334 117.934 184.102 124.034 182.675C130.134 181.249 167.093 170.194 167.093 170.194L196.516 157L203.693 137.03Z" fill="#A0616A"/>
<path d="M231.12 159.477L229.623 172.362C228.338 173.541 227.02 174.683 225.668 175.79C225.41 176.003 225.153 176.213 224.892 176.419C214.531 173.263 198.297 173.615 195.083 173.723C194.717 173.732 194.518 173.741 194.518 173.741L194.161 166.253C190.718 165.114 189.588 162.624 189.557 159.884C189.504 154.916 193.084 149.134 193.084 149.134C193.726 148.495 198.529 139.446 199.523 137.57C199.638 137.35 199.703 137.23 199.703 137.23L204.009 136.163C204.009 136.163 203.997 136.196 203.972 136.258C203.587 137.329 200.24 147.014 206.003 147.351C211.672 147.684 224.004 131.861 225.702 129.643C225.83 129.476 225.898 129.387 225.898 129.387L230.564 131.883C230.546 131.889 230.527 131.892 230.508 131.898C227.658 132.685 225.019 139.507 225.019 139.507C217.577 152.54 230.788 159.31 231.114 159.474C231.115 159.475 231.118 159.477 231.12 159.477Z" fill="#18EDE0"/>
<path d="M210.311 100.841C203.244 100.841 197.514 104.162 197.514 108.259C197.514 110.092 198.666 111.768 200.567 113.062L203.03 111.288L202.36 114.067C202.638 114.195 202.922 114.319 203.218 114.434L206.899 110.167V115.409C208.027 115.588 209.168 115.678 210.311 115.678C217.378 115.678 223.108 112.356 223.108 108.259C223.108 104.162 217.378 100.841 210.311 100.841Z" fill="black"/>
<path d="M236.524 103.202C239.823 103.202 242.496 100.545 242.496 97.2673C242.496 93.9896 239.823 91.3325 236.524 91.3325C233.226 91.3325 230.553 93.9896 230.553 97.2673C230.553 100.545 233.226 103.202 236.524 103.202Z" fill="black"/>
<path d="M230.126 94.7236C230.126 93.2599 230.671 91.8478 231.655 90.7588C232.639 89.6698 233.994 88.9807 235.458 88.8239C235.245 88.801 235.032 88.7892 234.818 88.7888C234.006 88.7877 233.203 88.9511 232.456 89.269C231.71 89.587 231.037 90.0528 230.478 90.6381C229.919 91.2234 229.486 91.9158 229.206 92.673C228.925 93.4302 228.803 94.2363 228.846 95.0421C228.89 95.8478 229.098 96.6363 229.459 97.3592C229.819 98.0822 230.325 98.7245 230.943 99.2469C231.562 99.7693 232.282 100.161 233.058 100.397C233.834 100.634 234.651 100.711 235.458 100.623C233.994 100.467 232.639 99.7774 231.655 98.6884C230.671 97.5995 230.126 96.1874 230.126 94.7236Z" fill="black"/>
<path d="M230.553 97.2671C230.553 97.2671 229.625 101.506 235.421 103.202L230.553 97.2671Z" fill="#0C97AA"/>
<path d="M223.405 117.576C223.977 117.576 224.441 116.538 224.441 115.258C224.441 113.978 223.977 112.94 223.405 112.94C222.832 112.94 222.368 113.978 222.368 115.258C222.368 116.538 222.832 117.576 223.405 117.576Z" fill="#A0616A"/>
<path d="M108.997 124.225L93.2629 128.014L93.2116 128.026L91.5013 129.565L91.009 130.007L89.9536 129.817L88.0854 129.481L89.3873 125.115L89.6314 116.786L88.7364 111.691L93.6998 108.295C93.6998 108.295 103.382 107.729 108.997 124.225Z" fill="#E7E7E7"/>
<path opacity="0.1" d="M93.2628 128.013C93.0497 128.466 93.4964 128.167 93.2523 128.632L90.974 129.36L89.9536 129.817L88.0854 129.481L89.3873 125.115L89.6314 116.786L88.7364 111.691L93.6998 108.295C93.6998 108.295 99.0269 115.793 93.2628 128.013Z" fill="black"/>
<path d="M127.549 112.257C127.549 112.257 106.881 121.799 98.5004 123.255C90.1196 124.71 90.8519 133.039 90.8519 133.039L137.801 125.762C137.801 125.762 136.173 118.241 127.549 112.257Z" fill="white"/>
<path d="M87.6787 110.64C87.6787 110.64 91.2588 119.292 87.2719 130.047L91.9098 132.15L93.6999 130.047L93.7405 129.845L88.8178 129.4C88.8178 129.4 92.8862 118.565 89.5501 111.044C89.5501 111.044 88.8178 109.427 87.6787 110.64Z" fill="#0C97AA"/>
<path d="M155.946 174.765C137.638 170.721 120.592 179.091 120.592 179.091L120.545 179.05L113.757 173.026L87.2311 130.007L93.6998 130.047C111.682 119.373 136.987 120.829 136.987 120.829C147.89 133.12 155.946 174.765 155.946 174.765Z" fill="#0C97AA"/>
<path opacity="0.1" d="M120.545 179.05L113.757 173.026L87.2311 130.007L93.6998 130.047C93.6998 130.047 119.482 163.888 120.545 179.05Z" fill="black"/>
<path d="M123.525 145.484C129.067 143.794 132.684 139.587 131.603 136.086C130.522 132.584 125.154 131.116 119.611 132.805C114.069 134.495 110.453 138.702 111.533 142.203C112.614 145.704 117.982 147.173 123.525 145.484Z" fill="#17C1D9"/>
<path d="M12.6291 91.3785C15.8871 91.3785 18.5281 88.7538 18.5281 85.5161C18.5281 82.2783 15.8871 79.6536 12.6291 79.6536C9.37119 79.6536 6.7301 82.2783 6.7301 85.5161C6.7301 88.7538 9.37119 91.3785 12.6291 91.3785Z" fill="black"/>
<path d="M300.75 204C304.008 204 306.649 201.375 306.649 198.138C306.649 194.9 304.008 192.275 300.75 192.275C297.492 192.275 294.851 194.9 294.851 198.138C294.851 201.375 297.492 204 300.75 204Z" fill="black"/>
<path d="M38.3985 90.7615C40.9705 90.7615 43.0556 88.6893 43.0556 86.1332C43.0556 83.577 40.9705 81.5049 38.3985 81.5049C35.8264 81.5049 33.7413 83.577 33.7413 86.1332C33.7413 88.6893 35.8264 90.7615 38.3985 90.7615Z" fill="white"/>
<path d="M300.75 90.7615C303.322 90.7615 305.407 88.6893 305.407 86.1332C305.407 83.577 303.322 81.5049 300.75 81.5049C298.178 81.5049 296.093 83.577 296.093 86.1332C296.093 88.6893 298.178 90.7615 300.75 90.7615Z" fill="white"/>
<path d="M12.629 202.149C15.2011 202.149 17.2862 200.076 17.2862 197.52C17.2862 194.964 15.2011 192.892 12.629 192.892C10.057 192.892 7.97192 194.964 7.97192 197.52C7.97192 200.076 10.057 202.149 12.629 202.149Z" fill="white"/>
</g>
<defs>
<filter id="filter0_d_49_1146" x="0" y="0" width="314" height="212" filterUnits="userSpaceOnUse" color-interpolation-filters="sRGB">
<feFlood flood-opacity="0" result="BackgroundImageFix"/>
<feColorMatrix in="SourceAlpha" type="matrix" values="0 0 0 0 0 0 0 0 0 0 0 0 0 0 0 0 0 0 127 0" result="hardAlpha"/>
<feOffset dy="4"/>
<feGaussianBlur stdDeviation="2"/>
<feComposite in2="hardAlpha" operator="out"/>
<feColorMatrix type="matrix" values="0 0 0 0 0 0 0 0 0 0 0 0 0 0 0 0 0 0 0.25 0"/>
<feBlend mode="normal" in2="BackgroundImageFix" result="effect1_dropShadow_49_1146"/>
<feBlend mode="normal" in="SourceGraphic" in2="effect1_dropShadow_49_1146" result="shape"/>
</filter>
<clipPath id="clip0_49_1146">
<rect width="306" height="204" fill="white" transform="translate(4)"/>
</clipPath>
</defs>
</svg>
