<svg width="204" height="140" viewBox="0 0 204 140" fill="none" xmlns="http://www.w3.org/2000/svg">
<path d="M16.0743 53.2082H8.27774C7.02639 53.2082 6.40076 52.8332 6.40076 52.0832C6.40076 51.3958 6.65743 50.6926 7.17081 49.9738C7.68417 49.2238 8.34187 48.5364 9.144 47.9114C9.97817 47.2864 10.8926 46.7551 11.8872 46.3176C12.9139 45.8801 13.9085 45.6301 14.8711 45.5676L18.7213 45.4738C23.8227 45.4738 28.5712 46.0988 32.9668 47.3488C37.3623 48.5676 41.1804 50.5207 44.4209 53.2082C47.6615 55.8958 50.1961 59.3488 52.025 63.5676C53.8859 67.7866 54.8163 72.8959 54.8163 78.8959C54.8163 81.7392 54.5115 84.5206 53.9019 87.2392C53.3244 89.9586 52.4742 92.5206 51.3512 94.9272C50.2282 97.3332 48.8646 99.5365 47.2605 101.537C45.6883 103.537 43.9237 105.271 41.9665 106.739C40.0093 108.177 37.8757 109.302 35.5656 110.115C33.2555 110.927 30.8332 111.333 28.2985 111.333C27.1755 111.333 26.614 110.974 26.614 110.255C26.614 109.693 26.9669 109.255 27.6728 108.943C30.4 107.724 32.8224 106.302 34.94 104.677C37.0575 103.052 38.8382 101.115 40.2821 98.8646C41.7579 96.5832 42.8648 93.9272 43.6028 90.8959C44.3728 87.8646 44.7578 84.3332 44.7578 80.3019C44.7578 76.3019 44.2606 72.6612 43.2659 69.3799C42.3034 66.0988 40.6991 63.2707 38.4532 60.8958C36.2073 58.5207 33.2555 56.677 29.5979 55.3645C25.9402 54.0207 21.4324 53.302 16.0743 53.2082ZM6.40076 109.318V58.8332C6.40076 57.7082 6.78577 56.9582 7.55583 56.5832C8.35789 56.2082 9.57714 56.0207 11.2134 56.0207C13.0102 56.0207 14.2614 56.2082 14.9673 56.5832C15.7053 56.927 16.0743 57.677 16.0743 58.8332V101.724C16.0743 103.005 16.732 103.646 18.0475 103.646H26.0365C27.4161 103.646 28.106 104.037 28.106 104.818C28.106 105.287 27.6086 105.896 26.614 106.646C25.6515 107.396 24.4484 108.115 23.0045 108.802C21.5607 109.489 19.9244 110.083 18.0956 110.583C16.2667 111.083 14.5983 111.333 13.0904 111.333H8.37398C7.05849 111.333 6.40076 110.661 6.40076 109.318ZM79.9864 112.787C77.2917 112.787 74.9651 112.443 73.0082 111.755C71.0835 111.099 69.5113 110.005 68.2918 108.474C67.0727 106.911 66.1743 104.896 65.5967 102.427C65.0192 99.9586 64.7305 96.9112 64.7305 93.2866V67.8332C64.7305 66.9892 64.955 66.2082 65.4043 65.4895C65.8855 64.7395 66.4631 64.0988 67.1368 63.5676C67.8427 63.0364 68.5968 62.6301 69.399 62.3488C70.2327 62.0364 71.0027 61.8801 71.7091 61.8801C72.8316 61.8801 73.3936 62.552 73.3936 63.8958V92.4426L73.5859 96.0519C73.7139 97.8332 73.9706 99.3646 74.356 100.646C74.7406 101.896 75.3183 102.927 76.0884 103.739C76.8584 104.521 77.8208 105.099 78.9761 105.474C80.163 105.849 81.5908 106.037 83.2596 106.037C85.9221 106.037 88.3445 105.427 90.5266 104.208C91.1357 103.865 91.5369 103.693 91.7299 103.693C92.0187 103.693 92.2111 103.802 92.3069 104.021C92.4356 104.239 92.4999 104.708 92.4999 105.427C92.4999 106.739 92.0345 107.865 91.1043 108.802C90.1734 109.708 89.0509 110.459 87.7353 111.052C86.4197 111.646 85.0399 112.083 83.5963 112.365C82.1843 112.646 80.981 112.787 79.9864 112.787ZM103.617 63.8958V105.896C103.617 107.583 102.815 108.989 101.21 110.115C99.6383 111.239 98.1146 111.802 96.6389 111.802C95.5157 111.802 94.9544 111.13 94.9544 109.787V67.7866C94.9544 66.1614 95.7559 64.7707 97.3603 63.6145C98.9647 62.4582 100.488 61.8801 101.933 61.8801C103.055 61.8801 103.617 62.552 103.617 63.8958ZM115.552 109.787V45.2395C115.552 43.552 116.339 42.1458 117.911 41.0207C119.515 39.8958 121.055 39.3333 122.531 39.3333C123.654 39.3333 124.216 40.0051 124.216 41.3489V105.896C124.216 107.615 123.429 109.037 121.857 110.161C120.285 111.255 118.745 111.802 117.237 111.802C116.114 111.802 115.552 111.13 115.552 109.787ZM150.878 108.38C149.498 110.661 147.99 111.802 146.353 111.802C145.583 111.802 144.798 111.224 143.995 110.068L127.44 86.4892C126.895 85.6772 126.621 85.0206 126.621 84.5206C126.621 83.7392 127.055 82.8799 127.921 81.9426L142.119 66.5207C143.466 65.052 144.685 64.1614 145.776 63.8488C146.867 63.5364 148.696 63.3645 151.262 63.3332C152.257 63.3332 152.755 63.7238 152.755 64.5051C152.755 65.0676 152.289 65.802 151.359 66.7079L137.065 81.0986C136.295 81.9112 135.91 82.5986 135.91 83.1612C135.91 83.6299 136.183 84.2079 136.728 84.8959L150.781 103.646C151.359 104.489 151.648 105.255 151.648 105.943C151.648 106.724 151.391 107.537 150.878 108.38ZM179.706 61.8801C182.4 61.8801 184.823 62.2238 186.973 62.9114C189.122 63.5988 190.935 64.7082 192.411 66.2395C193.887 67.7392 195.01 69.6926 195.78 72.0986C196.582 74.4739 196.983 77.3486 196.983 80.7239V106.13C196.983 106.911 196.726 107.646 196.213 108.333C195.732 109.021 195.122 109.63 194.384 110.161C193.678 110.661 192.908 111.052 192.074 111.333C191.272 111.646 190.566 111.802 189.956 111.802C188.834 111.802 188.272 111.13 188.272 109.787V82.4586C188.272 73.2392 184.518 68.6299 177.01 68.6299C172.647 68.6299 168.684 69.8019 165.123 72.1459C163.712 73.0519 162.797 73.5052 162.38 73.5052C161.898 73.5052 161.658 73.2552 161.658 72.7552C161.658 71.8799 162.155 70.8486 163.15 69.6612C167.513 64.4738 173.032 61.8801 179.706 61.8801ZM184.615 108.708C183.267 109.896 181.598 110.865 179.609 111.615C177.62 112.396 175.711 112.787 173.882 112.787C169.615 112.787 166.342 111.693 164.064 109.505C161.818 107.287 160.695 104.568 160.695 101.349C160.695 99.0366 161.514 97.2706 163.15 96.0519C164.626 94.9272 165.909 94.3646 167 94.3646C167.353 94.3646 167.658 94.4892 167.914 94.7392C168.171 94.9892 168.3 95.3646 168.3 95.8646C168.3 99.4272 168.925 102.021 170.176 103.646C171.428 105.239 173.658 106.037 176.866 106.037C177.829 106.037 179 105.88 180.379 105.568C181.759 105.224 182.93 104.771 183.892 104.208C184.47 103.865 184.903 103.693 185.192 103.693C185.641 103.693 185.866 104.271 185.866 105.427C185.866 106.865 185.449 107.959 184.615 108.708ZM184.229 83.3959C184.839 83.7079 185.256 84.1299 185.48 84.6612C185.705 85.1612 185.818 86.1146 185.818 87.5206C185.818 88.7706 185.705 89.6772 185.48 90.2392C185.288 90.7706 184.919 91.0366 184.374 91.0366C184.021 91.0366 183.524 90.8959 182.882 90.6146C179.866 89.3332 177.139 88.6926 174.7 88.6926C170.754 88.6926 167 90.0832 163.438 92.8646C162.316 93.7392 161.562 94.1772 161.177 94.1772C160.664 94.1772 160.407 93.8959 160.407 93.3332C160.407 92.4586 160.727 91.5052 161.369 90.4739C163.069 87.6926 165.299 85.5832 168.059 84.1459C170.85 82.6772 173.946 81.9426 177.348 81.9426C179.946 81.9426 182.24 82.4272 184.229 83.3959Z" fill="white"/>
<path d="M104.04 56.3332C104.04 60.1992 101.741 53.3332 98.906 53.3332C96.0709 53.3332 93.7725 60.1992 93.7725 56.3332C93.7725 52.4672 96.0709 49.3333 98.906 49.3333C101.741 49.3333 104.04 52.4672 104.04 56.3332Z" fill="white"/>
<path d="M74.6073 56.3332C74.6073 60.1992 72.3088 53.3332 69.4737 53.3332C66.6386 53.3332 64.3402 60.1992 64.3402 56.3332C64.3402 52.4672 66.6386 49.3333 69.4737 49.3333C72.3088 49.3333 74.6073 52.4672 74.6073 56.3332Z" fill="white"/>
<path d="M124.129 36.3459L123.431 34.6088C123.305 34.2952 122.854 34.2624 122.68 34.5541L122.386 35.0463C122.334 35.1337 122.209 35.1497 122.134 35.0785C122.034 34.9828 121.863 35.0496 121.862 35.1849L121.037 112.128C121.034 112.35 121.222 112.531 121.453 112.531H122.207C122.257 112.531 122.306 112.522 122.353 112.505L123.679 112.03C123.841 111.972 123.949 111.824 123.949 111.658L124.157 36.49C124.157 36.4407 124.148 36.3919 124.129 36.3459Z" fill="#F7B14C"/>
<path d="M116.033 35.0296L115.199 112.13L116.033 112.331L116.866 33.825L116.033 35.0296Z" fill="#F7F7EB"/>
<path d="M116.658 34.2265L116.033 112.529L117.491 112.729L118.324 37.2123L117.491 34.0258L116.866 33.825L116.658 34.2265Z" fill="#F7DF8B"/>
<path d="M118.316 35.8777L118.141 37.2181C118.125 37.3402 118.169 37.4624 118.26 37.5493L118.409 37.6924C118.488 37.7676 118.532 37.8699 118.531 37.9763L118.118 112.13C118.117 112.351 118.304 112.531 118.534 112.531H120.62C120.848 112.531 121.034 112.355 121.036 112.136L121.864 35.3036C121.865 35.2483 121.853 35.1934 121.831 35.1426L121.309 33.9766C121.265 33.8795 121.183 33.8029 121.08 33.7636L120.324 33.4743C120.243 33.4432 120.153 33.4374 120.068 33.4577L119.56 33.579C119.437 33.6085 119.335 33.6901 119.283 33.8008L118.35 35.7622C118.332 35.7989 118.322 35.8378 118.316 35.8777Z" fill="#F7D14C"/>
<path d="M115.408 36.6146L114.992 112.031C114.992 112.197 115.132 112.331 115.305 112.331C115.477 112.331 115.617 112.199 115.617 112.034L116.033 36.4153L115.408 36.6146Z" fill="#D19146"/>
<path d="M118.532 37.4114H117.908L117.493 112.429C117.491 112.595 117.632 112.729 117.805 112.729C117.977 112.729 118.116 112.597 118.118 112.433L118.532 37.4114Z" fill="#D19146"/>
<path d="M123.949 36.4153V111.799C123.949 111.941 124.099 112.037 124.236 111.984C124.314 111.953 124.365 111.88 124.365 111.799V36.4153H123.949Z" fill="#D19146"/>
<path d="M117.63 112.51L115.378 111.847C115.185 111.791 114.991 111.928 114.991 112.121C114.991 112.245 115.077 112.356 115.202 112.393L117.63 113.108C117.676 113.121 117.723 113.127 117.771 113.125L122.194 112.933C122.252 112.93 122.309 112.916 122.361 112.891L124.255 111.985C124.323 111.953 124.366 111.887 124.366 111.815C124.366 111.681 124.223 111.589 124.092 111.639L122.348 112.306C122.304 112.323 122.258 112.333 122.211 112.335L117.771 112.527C117.723 112.529 117.676 112.523 117.63 112.51Z" fill="#D19146"/>
<path d="M122.282 62.3184V112.467C122.282 112.599 122.414 112.694 122.547 112.659C122.636 112.634 122.699 112.555 122.699 112.467V62.3184C122.699 62.2084 122.606 62.1191 122.491 62.1191C122.376 62.1191 122.282 62.2084 122.282 62.3184Z" fill="#D19146"/>
<path d="M118.741 25.2571L117.915 27.8239C117.91 27.8394 117.908 27.8557 117.908 27.872C117.908 28.0147 118.085 28.0891 118.194 27.9923L120.481 25.9732C120.567 25.8978 120.615 25.7916 120.615 25.6804V25.317C120.615 25.2773 120.609 25.2378 120.597 25.1998L119.782 22.6667L118.741 25.2571Z" fill="#575656"/>
<path d="M119.158 27.2498L118.325 34.2237L118.95 34.0244L119.366 33.6259L120.199 33.4266L121.24 33.6259L121.657 34.2237L122.282 34.4229L120.199 25.855L119.158 27.2498Z" fill="#F5E8C3"/>
<path d="M122.282 34.6219L120.199 25.8547L120.407 25.6555L123.324 33.8249L122.282 34.6219Z" fill="#E9CC9C"/>
<path d="M118.324 28.0468L116.449 33.4266L118.324 34.2236L119.157 27.2498L118.324 28.0468Z" fill="#F7F1D8"/>
<path d="M115.612 34.6628L115.407 36.6146L115.512 36.7142C115.569 36.7692 115.663 36.7692 115.72 36.7142L115.763 36.673C115.797 36.6408 115.851 36.6408 115.885 36.673C115.94 36.725 116.032 36.6881 116.032 36.6146V35.1534C116.032 35.0672 116.062 34.9832 116.116 34.9143L116.635 34.2523C116.65 34.2332 116.663 34.2128 116.674 34.1914L116.704 34.1342C116.797 33.9568 117.012 33.8716 117.209 33.9344L117.237 33.9437C117.392 33.9928 117.502 34.1232 117.52 34.2777L117.885 37.4217C117.894 37.498 117.991 37.5306 118.048 37.4763C118.086 37.4406 118.146 37.4406 118.183 37.4763L118.294 37.5826C118.313 37.6007 118.339 37.6109 118.366 37.6109C118.404 37.6109 118.439 37.5902 118.456 37.5575L118.533 37.4116L118.339 35.9294C118.329 35.8563 118.341 35.7821 118.372 35.715L119.282 33.8008C119.335 33.6902 119.437 33.6086 119.561 33.5792L120.068 33.4578C120.153 33.4374 120.242 33.4433 120.324 33.4744L121.08 33.7638C121.183 33.803 121.265 33.8796 121.308 33.9768L121.832 35.1446C121.854 35.1942 121.865 35.2476 121.865 35.3016V35.4126C121.865 35.5387 121.94 35.654 122.058 35.7103L122.084 35.7226C122.202 35.7793 122.345 35.7571 122.439 35.6675C122.473 35.6352 122.498 35.5958 122.513 35.5524L122.689 35.0471C122.819 34.6754 123.372 34.6869 123.485 35.0636L123.897 36.444C123.921 36.5206 124.021 36.5454 124.079 36.4892L124.105 36.4652C124.134 36.4376 124.18 36.4376 124.209 36.4652C124.238 36.4926 124.284 36.4926 124.313 36.4652L124.365 36.4154L120.615 25.2571L120.407 25.6556L122.869 32.7186C122.894 32.7906 122.897 32.8678 122.878 32.9414L122.699 33.6258L122.576 33.9758C122.463 34.3026 121.998 34.3465 121.819 34.0474L121.528 33.5587C121.477 33.4736 121.395 33.4094 121.298 33.3784L120.888 33.2477C120.845 33.2342 120.801 33.2273 120.756 33.2273H120.042C120.008 33.2273 119.974 33.2312 119.94 33.2392L119.294 33.3939C119.205 33.415 119.127 33.4634 119.069 33.5316L118.731 33.9364C118.541 34.1636 118.168 34.1258 118.033 33.8657L117.984 33.7734C117.935 33.6789 117.849 33.607 117.743 33.5736L117.396 33.4627C117.322 33.4391 117.242 33.4362 117.166 33.4543C116.854 33.5291 116.577 33.2461 116.676 32.9526L118.293 28.1383C118.313 28.0781 118.348 28.0233 118.395 27.9785L118.949 27.4489L119.133 27.2729C119.149 27.2574 119.164 27.2407 119.177 27.2228L119.678 26.5522L120.199 25.8548L118.795 27.3899C118.759 27.4288 118.716 27.4608 118.667 27.4839L118.412 27.6061C118.354 27.6337 118.29 27.6481 118.226 27.6481H118.213C118.031 27.6481 117.87 27.7611 117.816 27.9271L115.629 34.583C115.62 34.609 115.615 34.6357 115.612 34.6628Z" fill="#DBBD8D"/>
</svg>
