<svg width="33" height="39" viewBox="0 0 33 39" fill="none" xmlns="http://www.w3.org/2000/svg">
<path d="M5.07 36C5.01 36 4.97 35.9733 4.95 35.92L4.59 34.75C4.58333 34.73 4.57 34.72 4.55 34.72H1.74C1.72 34.72 1.70667 34.73 1.7 34.75L1.34 35.92C1.32 35.9733 1.28 36 1.22 36H0.41C0.336667 36 0.31 35.9633 0.33 35.89L2.52 29.08C2.54 29.0267 2.58 29 2.64 29H3.64C3.7 29 3.74 29.0267 3.76 29.08L5.97 35.89L5.98 35.93C5.98 35.9767 5.95 36 5.89 36H5.07ZM1.95 33.91C1.94333 33.9233 1.94333 33.9367 1.95 33.95C1.96333 33.9567 1.97667 33.96 1.99 33.96H4.29C4.30333 33.96 4.31333 33.9567 4.32 33.95C4.33333 33.9367 4.33667 33.9233 4.33 33.91L3.17 30.2C3.16333 30.1867 3.15333 30.18 3.14 30.18C3.12667 30.18 3.11667 30.1867 3.11 30.2L1.95 33.91ZM7.50883 30.11C7.32216 30.11 7.16883 30.05 7.04883 29.93C6.92883 29.81 6.86883 29.6567 6.86883 29.47C6.86883 29.2833 6.92883 29.13 7.04883 29.01C7.16883 28.89 7.32216 28.83 7.50883 28.83C7.70216 28.83 7.85549 28.89 7.96883 29.01C8.08883 29.1233 8.14883 29.2767 8.14883 29.47C8.14883 29.6567 8.08883 29.81 7.96883 29.93C7.84883 30.05 7.69549 30.11 7.50883 30.11ZM5.95883 38.07C5.89216 38.07 5.85883 38.0367 5.85883 37.97V37.35C5.85883 37.2833 5.89216 37.25 5.95883 37.25C6.33883 37.25 6.61216 37.1733 6.77883 37.02C6.95216 36.8667 7.03883 36.6233 7.03883 36.29L7.02883 31.01C7.02883 30.9433 7.06216 30.91 7.12883 30.91H7.88883C7.95549 30.91 7.98883 30.9433 7.98883 31.01V36.28C7.98883 36.72 7.92216 37.07 7.78883 37.33C7.65549 37.59 7.44216 37.78 7.14883 37.9C6.85549 38.02 6.45883 38.0767 5.95883 38.07ZM12.5093 31.01C12.5093 30.9433 12.5426 30.91 12.6093 30.91H13.3593C13.426 30.91 13.4593 30.9433 13.4593 31.01V35.9C13.4593 35.9667 13.426 36 13.3593 36H12.6093C12.5426 36 12.5093 35.9667 12.5093 35.9V35.53C12.5093 35.5167 12.5026 35.51 12.4893 35.51C12.4826 35.5033 12.4726 35.5067 12.4593 35.52C12.1926 35.8867 11.7826 36.07 11.2293 36.07C10.9026 36.07 10.5993 36.0067 10.3193 35.88C10.046 35.7533 9.82596 35.5667 9.6593 35.32C9.49263 35.0733 9.4093 34.7733 9.4093 34.42V31.01C9.4093 30.9433 9.44263 30.91 9.5093 30.91H10.2593C10.326 30.91 10.3593 30.9433 10.3593 31.01V34.12C10.3593 34.4667 10.4493 34.74 10.6293 34.94C10.816 35.14 11.076 35.24 11.4093 35.24C11.7426 35.24 12.0093 35.14 12.2093 34.94C12.4093 34.7333 12.5093 34.46 12.5093 34.12V31.01ZM16.6502 36.06C16.2502 36.06 15.8968 36 15.5902 35.88C15.2902 35.76 15.0568 35.5967 14.8902 35.39C14.7235 35.1767 14.6402 34.9433 14.6402 34.69V34.58C14.6402 34.5133 14.6735 34.48 14.7402 34.48H15.4602C15.5268 34.48 15.5602 34.5133 15.5602 34.58V34.63C15.5602 34.8167 15.6602 34.98 15.8602 35.12C16.0668 35.26 16.3268 35.33 16.6402 35.33C16.9402 35.33 17.1835 35.2667 17.3702 35.14C17.5568 35.0067 17.6502 34.84 17.6502 34.64C17.6502 34.4467 17.5635 34.3033 17.3902 34.21C17.2168 34.11 16.9368 34.0067 16.5502 33.9C16.1702 33.7933 15.8502 33.6867 15.5902 33.58C15.3368 33.4667 15.1202 33.31 14.9402 33.11C14.7668 32.9033 14.6802 32.64 14.6802 32.32C14.6802 31.8733 14.8535 31.52 15.2002 31.26C15.5535 30.9933 16.0202 30.86 16.6002 30.86C16.9868 30.86 17.3268 30.9233 17.6202 31.05C17.9202 31.17 18.1502 31.34 18.3102 31.56C18.4702 31.78 18.5502 32.0267 18.5502 32.3V32.33C18.5502 32.3967 18.5168 32.43 18.4502 32.43H17.7502C17.6835 32.43 17.6502 32.3967 17.6502 32.33V32.3C17.6502 32.1067 17.5535 31.9467 17.3602 31.82C17.1735 31.6867 16.9168 31.62 16.5902 31.62C16.2968 31.62 16.0568 31.6767 15.8702 31.79C15.6902 31.9033 15.6002 32.0567 15.6002 32.25C15.6002 32.4433 15.6868 32.59 15.8602 32.69C16.0402 32.79 16.3268 32.8967 16.7202 33.01C17.1068 33.1167 17.4268 33.2233 17.6802 33.33C17.9402 33.43 18.1602 33.5833 18.3402 33.79C18.5202 33.99 18.6102 34.2533 18.6102 34.58C18.6102 35.0333 18.4302 35.3933 18.0702 35.66C17.7168 35.9267 17.2435 36.06 16.6502 36.06ZM22.2334 31.6C22.2334 31.6667 22.2001 31.7 22.1334 31.7H21.0534C21.0268 31.7 21.0134 31.7133 21.0134 31.74V34.39C21.0134 34.67 21.0768 34.8733 21.2034 35C21.3301 35.12 21.5268 35.18 21.7934 35.18H22.0834C22.1501 35.18 22.1834 35.2133 22.1834 35.28V35.9C22.1834 35.9667 22.1501 36 22.0834 36C21.8701 36.0133 21.7168 36.02 21.6234 36.02C21.1168 36.02 20.7334 35.93 20.4734 35.75C20.2201 35.5633 20.0934 35.2233 20.0934 34.73V31.74C20.0934 31.7133 20.0801 31.7 20.0534 31.7H19.4434C19.3768 31.7 19.3434 31.6667 19.3434 31.6V31.01C19.3434 30.9433 19.3768 30.91 19.4434 30.91H20.0534C20.0801 30.91 20.0934 30.8967 20.0934 30.87V29.69C20.0934 29.6233 20.1268 29.59 20.1934 29.59H20.9134C20.9801 29.59 21.0134 29.6233 21.0134 29.69V30.87C21.0134 30.8967 21.0268 30.91 21.0534 30.91H22.1334C22.2001 30.91 22.2334 30.9433 22.2334 31.01V31.6ZM27.4177 32.82C27.4443 33.0933 27.4543 33.4 27.4477 33.74C27.4477 33.8067 27.4143 33.84 27.3477 33.84H24.1577C24.131 33.84 24.1177 33.8533 24.1177 33.88C24.1177 34.1067 24.1377 34.28 24.1777 34.4C24.251 34.6667 24.3977 34.8767 24.6177 35.03C24.8443 35.1767 25.1277 35.25 25.4677 35.25C25.961 35.25 26.341 35.0467 26.6077 34.64C26.641 34.5733 26.6843 34.5633 26.7377 34.61L27.3077 34.99C27.3543 35.03 27.3643 35.0733 27.3377 35.12C27.151 35.42 26.8843 35.6567 26.5377 35.83C26.1977 36.0033 25.811 36.09 25.3777 36.09C24.891 36.09 24.481 35.9833 24.1477 35.77C23.8143 35.5567 23.5643 35.2533 23.3977 34.86C23.2377 34.4667 23.1577 33.99 23.1577 33.43C23.1577 32.9433 23.1943 32.5733 23.2677 32.32C23.3877 31.86 23.6277 31.4967 23.9877 31.23C24.3477 30.9633 24.7843 30.83 25.2977 30.83C25.971 30.83 26.4743 31 26.8077 31.34C27.141 31.6733 27.3443 32.1667 27.4177 32.82ZM25.2977 31.66C25.011 31.66 24.7743 31.7333 24.5877 31.88C24.401 32.02 24.2743 32.21 24.2077 32.45C24.161 32.5967 24.131 32.7833 24.1177 33.01C24.1177 33.0367 24.131 33.05 24.1577 33.05H26.4477C26.4743 33.05 26.4877 33.0367 26.4877 33.01C26.4743 32.79 26.4543 32.6267 26.4277 32.52C26.361 32.26 26.2277 32.0533 26.0277 31.9C25.8343 31.74 25.591 31.66 25.2977 31.66ZM30.3709 36.06C29.9709 36.06 29.6175 36 29.3109 35.88C29.0109 35.76 28.7775 35.5967 28.6109 35.39C28.4442 35.1767 28.3609 34.9433 28.3609 34.69V34.58C28.3609 34.5133 28.3942 34.48 28.4609 34.48H29.1809C29.2475 34.48 29.2809 34.5133 29.2809 34.58V34.63C29.2809 34.8167 29.3809 34.98 29.5809 35.12C29.7875 35.26 30.0475 35.33 30.3609 35.33C30.6609 35.33 30.9042 35.2667 31.0909 35.14C31.2775 35.0067 31.3709 34.84 31.3709 34.64C31.3709 34.4467 31.2842 34.3033 31.1109 34.21C30.9375 34.11 30.6575 34.0067 30.2709 33.9C29.8909 33.7933 29.5709 33.6867 29.3109 33.58C29.0575 33.4667 28.8409 33.31 28.6609 33.11C28.4875 32.9033 28.4009 32.64 28.4009 32.32C28.4009 31.8733 28.5742 31.52 28.9209 31.26C29.2742 30.9933 29.7409 30.86 30.3209 30.86C30.7075 30.86 31.0475 30.9233 31.3409 31.05C31.6409 31.17 31.8709 31.34 32.0309 31.56C32.1909 31.78 32.2709 32.0267 32.2709 32.3V32.33C32.2709 32.3967 32.2375 32.43 32.1709 32.43H31.4709C31.4042 32.43 31.3709 32.3967 31.3709 32.33V32.3C31.3709 32.1067 31.2742 31.9467 31.0809 31.82C30.8942 31.6867 30.6375 31.62 30.3109 31.62C30.0175 31.62 29.7775 31.6767 29.5909 31.79C29.4109 31.9033 29.3209 32.0567 29.3209 32.25C29.3209 32.4433 29.4075 32.59 29.5809 32.69C29.7609 32.79 30.0475 32.8967 30.4409 33.01C30.8275 33.1167 31.1475 33.2233 31.4009 33.33C31.6609 33.43 31.8809 33.5833 32.0609 33.79C32.2409 33.99 32.3309 34.2533 32.3309 34.58C32.3309 35.0333 32.1509 35.3933 31.7909 35.66C31.4375 35.9267 30.9642 36.06 30.3709 36.06Z" fill="white"/>
<path d="M17 15C18.6569 15 20 13.6569 20 12C20 10.3431 18.6569 9 17 9C15.3431 9 14 10.3431 14 12C14 13.6569 15.3431 15 17 15Z" stroke="white" stroke-width="2" stroke-linecap="round" stroke-linejoin="round"/>
<path d="M24.4 15C24.2669 15.3016 24.2272 15.6362 24.286 15.9606C24.3448 16.285 24.4995 16.5843 24.73 16.82L24.79 16.88C24.976 17.0657 25.1235 17.2863 25.2241 17.5291C25.3248 17.7719 25.3766 18.0322 25.3766 18.295C25.3766 18.5578 25.3248 18.8181 25.2241 19.0609C25.1235 19.3037 24.976 19.5243 24.79 19.71C24.6043 19.896 24.3837 20.0435 24.1409 20.1441C23.8981 20.2448 23.6378 20.2966 23.375 20.2966C23.1122 20.2966 22.8519 20.2448 22.6091 20.1441C22.3663 20.0435 22.1457 19.896 21.96 19.71L21.9 19.65C21.6643 19.4195 21.365 19.2648 21.0406 19.206C20.7162 19.1472 20.3816 19.1869 20.08 19.32C19.7842 19.4468 19.532 19.6572 19.3543 19.9255C19.1766 20.1938 19.0813 20.5082 19.08 20.83V21C19.08 21.5304 18.8693 22.0391 18.4942 22.4142C18.1191 22.7893 17.6104 23 17.08 23C16.5496 23 16.0409 22.7893 15.6658 22.4142C15.2907 22.0391 15.08 21.5304 15.08 21V20.91C15.0723 20.579 14.9651 20.258 14.7725 19.9887C14.5799 19.7194 14.3107 19.5143 14 19.4C13.6984 19.2669 13.3638 19.2272 13.0394 19.286C12.715 19.3448 12.4157 19.4995 12.18 19.73L12.12 19.79C11.9343 19.976 11.7137 20.1235 11.4709 20.2241C11.2281 20.3248 10.9678 20.3766 10.705 20.3766C10.4422 20.3766 10.1819 20.3248 9.93912 20.2241C9.69632 20.1235 9.47575 19.976 9.29 19.79C9.10405 19.6043 8.95653 19.3837 8.85588 19.1409C8.75523 18.8981 8.70343 18.6378 8.70343 18.375C8.70343 18.1122 8.75523 17.8519 8.85588 17.6091C8.95653 17.3663 9.10405 17.1457 9.29 16.96L9.35 16.9C9.58054 16.6643 9.73519 16.365 9.794 16.0406C9.85282 15.7162 9.81312 15.3816 9.68 15.08C9.55324 14.7842 9.34276 14.532 9.07447 14.3543C8.80618 14.1766 8.49179 14.0813 8.17 14.08H8C7.46957 14.08 6.96086 13.8693 6.58579 13.4942C6.21071 13.1191 6 12.6104 6 12.08C6 11.5496 6.21071 11.0409 6.58579 10.6658C6.96086 10.2907 7.46957 10.08 8 10.08H8.09C8.42099 10.0723 8.742 9.96512 9.0113 9.77251C9.28059 9.5799 9.48572 9.31074 9.6 9C9.73312 8.69838 9.77282 8.36381 9.714 8.03941C9.65519 7.71502 9.50054 7.41568 9.27 7.18L9.21 7.12C9.02405 6.93425 8.87653 6.71368 8.77588 6.47088C8.67523 6.22808 8.62343 5.96783 8.62343 5.705C8.62343 5.44217 8.67523 5.18192 8.77588 4.93912C8.87653 4.69632 9.02405 4.47575 9.21 4.29C9.39575 4.10405 9.61632 3.95653 9.85912 3.85588C10.1019 3.75523 10.3622 3.70343 10.625 3.70343C10.8878 3.70343 11.1481 3.75523 11.3909 3.85588C11.6337 3.95653 11.8543 4.10405 12.04 4.29L12.1 4.35C12.3357 4.58054 12.635 4.73519 12.9594 4.794C13.2838 4.85282 13.6184 4.81312 13.92 4.68H14C14.2958 4.55324 14.548 4.34276 14.7257 4.07447C14.9034 3.80618 14.9987 3.49179 15 3.17V3C15 2.46957 15.2107 1.96086 15.5858 1.58579C15.9609 1.21071 16.4696 1 17 1C17.5304 1 18.0391 1.21071 18.4142 1.58579C18.7893 1.96086 19 2.46957 19 3V3.09C19.0013 3.41179 19.0966 3.72618 19.2743 3.99447C19.452 4.26276 19.7042 4.47324 20 4.6C20.3016 4.73312 20.6362 4.77282 20.9606 4.714C21.285 4.65519 21.5843 4.50054 21.82 4.27L21.88 4.21C22.0657 4.02405 22.2863 3.87653 22.5291 3.77588C22.7719 3.67523 23.0322 3.62343 23.295 3.62343C23.5578 3.62343 23.8181 3.67523 24.0609 3.77588C24.3037 3.87653 24.5243 4.02405 24.71 4.21C24.896 4.39575 25.0435 4.61632 25.1441 4.85912C25.2448 5.10192 25.2966 5.36217 25.2966 5.625C25.2966 5.88783 25.2448 6.14808 25.1441 6.39088C25.0435 6.63368 24.896 6.85425 24.71 7.04L24.65 7.1C24.4195 7.33568 24.2648 7.63502 24.206 7.95941C24.1472 8.28381 24.1869 8.61838 24.32 8.92V9C24.4468 9.29577 24.6572 9.54802 24.9255 9.72569C25.1938 9.90337 25.5082 9.99872 25.83 10H26C26.5304 10 27.0391 10.2107 27.4142 10.5858C27.7893 10.9609 28 11.4696 28 12C28 12.5304 27.7893 13.0391 27.4142 13.4142C27.0391 13.7893 26.5304 14 26 14H25.91C25.5882 14.0013 25.2738 14.0966 25.0055 14.2743C24.7372 14.452 24.5268 14.7042 24.4 15V15Z" stroke="white" stroke-width="2" stroke-linecap="round" stroke-linejoin="round"/>
</svg>
