<svg width="31" height="35" viewBox="0 0 31 35" fill="none" xmlns="http://www.w3.org/2000/svg">
<path d="M3.07 33.09C2.59 33.09 2.16333 32.9967 1.79 32.81C1.42333 32.6167 1.13667 32.3467 0.93 32C0.73 31.6467 0.63 31.2433 0.63 30.79V28.2C0.63 27.7467 0.73 27.35 0.93 27.01C1.13667 26.6633 1.42333 26.3967 1.79 26.21C2.16333 26.0167 2.59 25.92 3.07 25.92C3.55 25.92 3.97333 26.0133 4.34 26.2C4.70667 26.38 4.99 26.6367 5.19 26.97C5.39667 27.3033 5.5 27.69 5.5 28.13V28.14C5.5 28.1733 5.49 28.2 5.47 28.22C5.45 28.24 5.42667 28.25 5.4 28.25L4.64 28.29C4.57333 28.29 4.54 28.26 4.54 28.2V28.17C4.54 27.7433 4.40667 27.4 4.14 27.14C3.87333 26.88 3.51667 26.75 3.07 26.75C2.62333 26.75 2.26333 26.88 1.99 27.14C1.72333 27.4 1.59 27.7433 1.59 28.17V30.83C1.59 31.2567 1.72333 31.6 1.99 31.86C2.26333 32.12 2.62333 32.25 3.07 32.25C3.51667 32.25 3.87333 32.12 4.14 31.86C4.40667 31.6 4.54 31.2567 4.54 30.83V30.81C4.54 30.75 4.57333 30.72 4.64 30.72L5.4 30.76C5.46667 30.76 5.5 30.7933 5.5 30.86C5.5 31.3 5.39667 31.69 5.19 32.03C4.99 32.3633 4.70667 32.6233 4.34 32.81C3.97333 32.9967 3.55 33.09 3.07 33.09ZM9.80422 28.01C9.80422 27.9433 9.83755 27.91 9.90422 27.91H10.6542C10.7209 27.91 10.7542 27.9433 10.7542 28.01V32.9C10.7542 32.9667 10.7209 33 10.6542 33H9.90422C9.83755 33 9.80422 32.9667 9.80422 32.9V32.53C9.80422 32.5167 9.79755 32.51 9.78422 32.51C9.77755 32.5033 9.76755 32.5067 9.75422 32.52C9.48755 32.8867 9.07755 33.07 8.52422 33.07C8.19755 33.07 7.89422 33.0067 7.61422 32.88C7.34089 32.7533 7.12089 32.5667 6.95422 32.32C6.78755 32.0733 6.70422 31.7733 6.70422 31.42V28.01C6.70422 27.9433 6.73755 27.91 6.80422 27.91H7.55422C7.62089 27.91 7.65422 27.9433 7.65422 28.01V31.12C7.65422 31.4667 7.74422 31.74 7.92422 31.94C8.11089 32.14 8.37089 32.24 8.70422 32.24C9.03755 32.24 9.30422 32.14 9.50422 31.94C9.70422 31.7333 9.80422 31.46 9.80422 31.12V28.01ZM14.3851 27.86C14.5984 27.86 14.7917 27.9033 14.9651 27.99C15.0117 28.01 15.0284 28.05 15.0151 28.11L14.8551 28.86C14.8484 28.92 14.8084 28.94 14.7351 28.92C14.6217 28.8733 14.4884 28.85 14.3351 28.85L14.1951 28.86C13.8817 28.8733 13.6217 28.9833 13.4151 29.19C13.2151 29.39 13.1151 29.6533 13.1151 29.98V32.9C13.1151 32.9667 13.0817 33 13.0151 33H12.2551C12.1884 33 12.1551 32.9667 12.1551 32.9V28.01C12.1551 27.9433 12.1884 27.91 12.2551 27.91H13.0151C13.0817 27.91 13.1151 27.9433 13.1151 28.01V28.54C13.1151 28.56 13.1184 28.5733 13.1251 28.58C13.1384 28.58 13.1484 28.5733 13.1551 28.56C13.4551 28.0933 13.8651 27.86 14.3851 27.86ZM17.6072 33.06C17.2072 33.06 16.8539 33 16.5472 32.88C16.2472 32.76 16.0139 32.5967 15.8472 32.39C15.6805 32.1767 15.5972 31.9433 15.5972 31.69V31.58C15.5972 31.5133 15.6305 31.48 15.6972 31.48H16.4172C16.4839 31.48 16.5172 31.5133 16.5172 31.58V31.63C16.5172 31.8167 16.6172 31.98 16.8172 32.12C17.0239 32.26 17.2839 32.33 17.5972 32.33C17.8972 32.33 18.1405 32.2667 18.3272 32.14C18.5139 32.0067 18.6072 31.84 18.6072 31.64C18.6072 31.4467 18.5205 31.3033 18.3472 31.21C18.1739 31.11 17.8939 31.0067 17.5072 30.9C17.1272 30.7933 16.8072 30.6867 16.5472 30.58C16.2939 30.4667 16.0772 30.31 15.8972 30.11C15.7239 29.9033 15.6372 29.64 15.6372 29.32C15.6372 28.8733 15.8105 28.52 16.1572 28.26C16.5105 27.9933 16.9772 27.86 17.5572 27.86C17.9439 27.86 18.2839 27.9233 18.5772 28.05C18.8772 28.17 19.1072 28.34 19.2672 28.56C19.4272 28.78 19.5072 29.0267 19.5072 29.3V29.33C19.5072 29.3967 19.4739 29.43 19.4072 29.43H18.7072C18.6405 29.43 18.6072 29.3967 18.6072 29.33V29.3C18.6072 29.1067 18.5105 28.9467 18.3172 28.82C18.1305 28.6867 17.8739 28.62 17.5472 28.62C17.2539 28.62 17.0139 28.6767 16.8272 28.79C16.6472 28.9033 16.5572 29.0567 16.5572 29.25C16.5572 29.4433 16.6439 29.59 16.8172 29.69C16.9972 29.79 17.2839 29.8967 17.6772 30.01C18.0639 30.1167 18.3839 30.2233 18.6372 30.33C18.8972 30.43 19.1172 30.5833 19.2972 30.79C19.4772 30.99 19.5672 31.2533 19.5672 31.58C19.5672 32.0333 19.3872 32.3933 19.0272 32.66C18.6739 32.9267 18.2005 33.06 17.6072 33.06ZM22.7702 33.08C22.2769 33.08 21.8469 32.9567 21.4802 32.71C21.1136 32.4567 20.8569 32.1067 20.7102 31.66C20.5902 31.3 20.5302 30.8933 20.5302 30.44C20.5302 29.9667 20.5869 29.5667 20.7002 29.24C20.8469 28.8 21.1036 28.4567 21.4702 28.21C21.8369 27.9567 22.2736 27.83 22.7802 27.83C23.2602 27.83 23.6769 27.9567 24.0302 28.21C24.3902 28.4567 24.6469 28.7967 24.8002 29.23C24.9202 29.57 24.9802 29.97 24.9802 30.43C24.9802 30.8967 24.9202 31.3067 24.8002 31.66C24.6536 32.1067 24.4002 32.4567 24.0402 32.71C23.6802 32.9567 23.2569 33.08 22.7702 33.08ZM22.7702 32.25C23.0369 32.25 23.2702 32.1767 23.4702 32.03C23.6702 31.8767 23.8136 31.6633 23.9002 31.39C23.9736 31.1367 24.0102 30.8233 24.0102 30.45C24.0102 30.0767 23.9769 29.7667 23.9102 29.52C23.8236 29.2467 23.6802 29.0367 23.4802 28.89C23.2802 28.7367 23.0369 28.66 22.7502 28.66C22.4769 28.66 22.2402 28.7367 22.0402 28.89C21.8402 29.0367 21.6969 29.2467 21.6102 29.52C21.5369 29.7533 21.5002 30.0633 21.5002 30.45C21.5002 30.8367 21.5369 31.15 21.6102 31.39C21.6902 31.6633 21.8302 31.8767 22.0302 32.03C22.2369 32.1767 22.4836 32.25 22.7702 32.25ZM28.0271 33.06C27.6271 33.06 27.2738 33 26.9671 32.88C26.6671 32.76 26.4338 32.5967 26.2671 32.39C26.1004 32.1767 26.0171 31.9433 26.0171 31.69V31.58C26.0171 31.5133 26.0504 31.48 26.1171 31.48H26.8371C26.9038 31.48 26.9371 31.5133 26.9371 31.58V31.63C26.9371 31.8167 27.0371 31.98 27.2371 32.12C27.4438 32.26 27.7038 32.33 28.0171 32.33C28.3171 32.33 28.5604 32.2667 28.7471 32.14C28.9338 32.0067 29.0271 31.84 29.0271 31.64C29.0271 31.4467 28.9404 31.3033 28.7671 31.21C28.5938 31.11 28.3138 31.0067 27.9271 30.9C27.5471 30.7933 27.2271 30.6867 26.9671 30.58C26.7138 30.4667 26.4971 30.31 26.3171 30.11C26.1438 29.9033 26.0571 29.64 26.0571 29.32C26.0571 28.8733 26.2304 28.52 26.5771 28.26C26.9304 27.9933 27.3971 27.86 27.9771 27.86C28.3638 27.86 28.7038 27.9233 28.9971 28.05C29.2971 28.17 29.5271 28.34 29.6871 28.56C29.8471 28.78 29.9271 29.0267 29.9271 29.3V29.33C29.9271 29.3967 29.8938 29.43 29.8271 29.43H29.1271C29.0604 29.43 29.0271 29.3967 29.0271 29.33V29.3C29.0271 29.1067 28.9304 28.9467 28.7371 28.82C28.5504 28.6867 28.2938 28.62 27.9671 28.62C27.6738 28.62 27.4338 28.6767 27.2471 28.79C27.0671 28.9033 26.9771 29.0567 26.9771 29.25C26.9771 29.4433 27.0638 29.59 27.2371 29.69C27.4171 29.79 27.7038 29.8967 28.0971 30.01C28.4838 30.1167 28.8038 30.2233 29.0571 30.33C29.3171 30.43 29.5371 30.5833 29.7171 30.79C29.8971 30.99 29.9871 31.2533 29.9871 31.58C29.9871 32.0333 29.8071 32.3933 29.4471 32.66C29.0938 32.9267 28.6204 33.06 28.0271 33.06Z" fill="white"/>
<g clip-path="url(#clip0_48_1825)">
<path d="M6.75 17.875C6.75 17.2672 6.99144 16.6843 7.42121 16.2545C7.85098 15.8248 8.43388 15.5833 9.04167 15.5833H21.4167" stroke="white" stroke-width="2" stroke-linecap="round" stroke-linejoin="round"/>
<path d="M9.04167 1.83333H21.4167V20.1667H9.04167C8.43388 20.1667 7.85098 19.9252 7.42121 19.4955C6.99144 19.0657 6.75 18.4828 6.75 17.875V4.125C6.75 3.51721 6.99144 2.93432 7.42121 2.50455C7.85098 2.07477 8.43388 1.83333 9.04167 1.83333V1.83333Z" stroke="white" stroke-width="2" stroke-linecap="round" stroke-linejoin="round"/>
</g>
<defs>
<clipPath id="clip0_48_1825">
<rect width="22" height="22" fill="white" transform="translate(4)"/>
</clipPath>
</defs>
</svg>
