<svg width="24" height="35" viewBox="0 0 24 35" fill="none" xmlns="http://www.w3.org/2000/svg">
<path d="M0.92 33C0.853333 33 0.82 32.9667 0.82 32.9V26.1C0.82 26.0333 0.853333 26 0.92 26H1.68C1.74667 26 1.78 26.0333 1.78 26.1V32.9C1.78 32.9667 1.74667 33 1.68 33H0.92ZM5.56766 27.84C6.11432 27.84 6.54766 28 6.86766 28.32C7.18766 28.6333 7.34766 29.06 7.34766 29.6V32.9C7.34766 32.9667 7.31432 33 7.24766 33H6.48766C6.42099 33 6.38766 32.9667 6.38766 32.9V29.79C6.38766 29.4567 6.29099 29.1867 6.09766 28.98C5.90432 28.7733 5.64766 28.67 5.32766 28.67C5.01432 28.67 4.75766 28.7733 4.55766 28.98C4.35766 29.1867 4.25766 29.4533 4.25766 29.78V32.9C4.25766 32.9667 4.22432 33 4.15766 33H3.39766C3.33099 33 3.29766 32.9667 3.29766 32.9V28.01C3.29766 27.9433 3.33099 27.91 3.39766 27.91H4.15766C4.22432 27.91 4.25766 27.9433 4.25766 28.01V28.37C4.25766 28.3833 4.26099 28.3933 4.26766 28.4C4.28099 28.4067 4.29099 28.4033 4.29766 28.39C4.58432 28.0233 5.00766 27.84 5.56766 27.84ZM8.73758 33C8.67091 33 8.63758 32.9667 8.63758 32.9V28.01C8.63758 27.9433 8.67091 27.91 8.73758 27.91H9.49758C9.56424 27.91 9.59758 27.9433 9.59758 28.01V32.9C9.59758 32.9667 9.56424 33 9.49758 33H8.73758ZM8.70758 27.27C8.66758 27.27 8.63758 27.26 8.61758 27.24C8.60424 27.2133 8.60758 27.1833 8.62758 27.15L9.21758 26.07C9.23758 26.0233 9.27758 26 9.33758 26H10.0076C10.0476 26 10.0709 26.0133 10.0776 26.04C10.0909 26.06 10.0876 26.0867 10.0676 26.12L9.35758 27.2C9.32424 27.2467 9.28424 27.27 9.23758 27.27H8.70758ZM12.9646 33.08C12.4579 33.08 12.0246 32.9533 11.6646 32.7C11.3046 32.44 11.0579 32.09 10.9246 31.65C10.8246 31.3433 10.7746 30.94 10.7746 30.44C10.7746 29.98 10.8246 29.5767 10.9246 29.23C11.0579 28.8033 11.3046 28.4633 11.6646 28.21C12.0313 27.9567 12.4646 27.83 12.9646 27.83C13.4646 27.83 13.9013 27.9567 14.2746 28.21C14.6479 28.4633 14.8913 28.7833 15.0046 29.17C15.0446 29.2767 15.0713 29.3867 15.0846 29.5C15.0846 29.5533 15.0546 29.5867 14.9946 29.6L14.2446 29.71H14.2246C14.1779 29.71 14.1446 29.68 14.1246 29.62L14.0946 29.46C14.0413 29.2333 13.9113 29.0433 13.7046 28.89C13.4979 28.7367 13.2479 28.66 12.9546 28.66C12.6679 28.66 12.4246 28.7367 12.2246 28.89C12.0246 29.0433 11.8946 29.2467 11.8346 29.5C11.7746 29.74 11.7446 30.0567 11.7446 30.45C11.7446 30.8367 11.7746 31.15 11.8346 31.39C11.9013 31.6567 12.0313 31.8667 12.2246 32.02C12.4246 32.1733 12.6679 32.25 12.9546 32.25C13.2479 32.25 13.4979 32.1733 13.7046 32.02C13.9179 31.8667 14.0513 31.6667 14.1046 31.42C14.1113 31.4133 14.1113 31.4067 14.1046 31.4C14.1046 31.3867 14.1079 31.3767 14.1146 31.37V31.33C14.1346 31.2767 14.1713 31.2567 14.2246 31.27L14.9746 31.39C15.0279 31.4033 15.0546 31.43 15.0546 31.47V31.51C15.0546 31.57 15.0379 31.6433 15.0046 31.73C14.8913 32.1367 14.6479 32.4633 14.2746 32.71C13.9013 32.9567 13.4646 33.08 12.9646 33.08ZM16.7683 27.11C16.5816 27.11 16.4283 27.05 16.3083 26.93C16.1883 26.81 16.1283 26.6567 16.1283 26.47C16.1283 26.2833 16.1883 26.13 16.3083 26.01C16.4283 25.89 16.5816 25.83 16.7683 25.83C16.9549 25.83 17.1083 25.89 17.2283 26.01C17.3483 26.13 17.4083 26.2833 17.4083 26.47C17.4083 26.6567 17.3483 26.81 17.2283 26.93C17.1083 27.05 16.9549 27.11 16.7683 27.11ZM16.3683 32.99C16.3016 32.99 16.2683 32.9567 16.2683 32.89V28.01C16.2683 27.9433 16.3016 27.91 16.3683 27.91H17.1283C17.1949 27.91 17.2283 27.9433 17.2283 28.01V32.89C17.2283 32.9567 17.1949 32.99 17.1283 32.99H16.3683ZM20.8171 33.08C20.3238 33.08 19.8938 32.9567 19.5271 32.71C19.1604 32.4567 18.9038 32.1067 18.7571 31.66C18.6371 31.3 18.5771 30.8933 18.5771 30.44C18.5771 29.9667 18.6338 29.5667 18.7471 29.24C18.8938 28.8 19.1504 28.4567 19.5171 28.21C19.8838 27.9567 20.3204 27.83 20.8271 27.83C21.3071 27.83 21.7238 27.9567 22.0771 28.21C22.4371 28.4567 22.6938 28.7967 22.8471 29.23C22.9671 29.57 23.0271 29.97 23.0271 30.43C23.0271 30.8967 22.9671 31.3067 22.8471 31.66C22.7004 32.1067 22.4471 32.4567 22.0871 32.71C21.7271 32.9567 21.3038 33.08 20.8171 33.08ZM20.8171 32.25C21.0838 32.25 21.3171 32.1767 21.5171 32.03C21.7171 31.8767 21.8604 31.6633 21.9471 31.39C22.0204 31.1367 22.0571 30.8233 22.0571 30.45C22.0571 30.0767 22.0238 29.7667 21.9571 29.52C21.8704 29.2467 21.7271 29.0367 21.5271 28.89C21.3271 28.7367 21.0838 28.66 20.7971 28.66C20.5238 28.66 20.2871 28.7367 20.0871 28.89C19.8871 29.0367 19.7438 29.2467 19.6571 29.52C19.5838 29.7533 19.5471 30.0633 19.5471 30.45C19.5471 30.8367 19.5838 31.15 19.6571 31.39C19.7371 31.6633 19.8771 31.8767 20.0771 32.03C20.2838 32.1767 20.5304 32.25 20.8171 32.25Z" fill="white"/>
<path d="M21.8079 9.87311L12.7517 0.821544L12.1446 0.214512C12.0063 0.0771135 11.8193 0 11.6243 0C11.4294 0 11.2423 0.0771135 11.104 0.214512L1.44072 9.87311C1.299 10.0143 1.18699 10.1824 1.11131 10.3676C1.03563 10.5528 0.997819 10.7512 1.0001 10.9512C1.00947 11.7762 1.69619 12.4348 2.52119 12.4348H3.51728V20.0684H19.7313V12.4348H20.7485C21.1493 12.4348 21.5267 12.2778 21.8102 11.9942C21.9499 11.855 22.0605 11.6895 22.1358 11.5073C22.211 11.325 22.2493 11.1296 22.2485 10.9325C22.2485 10.534 22.0915 10.1567 21.8079 9.87311ZM12.9368 18.3809H10.3118V13.5997H12.9368V18.3809ZM18.0438 10.7473V18.3809H14.4368V13.0372C14.4368 12.5192 14.0173 12.0997 13.4993 12.0997H9.74931C9.23135 12.0997 8.81181 12.5192 8.81181 13.0372V18.3809H5.20478V10.7473H2.95478L11.6267 2.08248L12.1681 2.62389L20.2962 10.7473H18.0438Z" fill="white"/>
</svg>
