<svg width="24" height="37" viewBox="0 0 24 37" fill="none" xmlns="http://www.w3.org/2000/svg">
<path d="M3.56 27.99C3.96667 27.99 4.32333 28.0767 4.63 28.25C4.94333 28.4167 5.18333 28.6533 5.35 28.96C5.52333 29.2667 5.61 29.62 5.61 30.02C5.61 30.42 5.52333 30.77 5.35 31.07C5.17667 31.37 4.93 31.6033 4.61 31.77C4.29667 31.9367 3.93333 32.02 3.52 32.02H1.76C1.73333 32.02 1.72 32.0333 1.72 32.06V34.9C1.72 34.9667 1.68667 35 1.62 35H0.86C0.793333 35 0.76 34.9667 0.76 34.9V28.09C0.76 28.0233 0.793333 27.99 0.86 27.99H3.56ZM3.43 31.24C3.79667 31.24 4.09 31.13 4.31 30.91C4.53667 30.69 4.65 30.4 4.65 30.04C4.65 29.6733 4.53667 29.38 4.31 29.16C4.09 28.9333 3.79667 28.82 3.43 28.82H1.76C1.73333 28.82 1.72 28.8333 1.72 28.86V31.2C1.72 31.2267 1.73333 31.24 1.76 31.24H3.43ZM10.5231 31.82C10.5498 32.0933 10.5598 32.4 10.5531 32.74C10.5531 32.8067 10.5198 32.84 10.4531 32.84H7.26313C7.23646 32.84 7.22313 32.8533 7.22313 32.88C7.22313 33.1067 7.24313 33.28 7.28313 33.4C7.35646 33.6667 7.50313 33.8767 7.72313 34.03C7.94979 34.1767 8.23313 34.25 8.57313 34.25C9.06646 34.25 9.44646 34.0467 9.71313 33.64C9.74646 33.5733 9.78979 33.5633 9.84313 33.61L10.4131 33.99C10.4598 34.03 10.4698 34.0733 10.4431 34.12C10.2565 34.42 9.98979 34.6567 9.64313 34.83C9.30313 35.0033 8.91646 35.09 8.48313 35.09C7.99646 35.09 7.58646 34.9833 7.25313 34.77C6.91979 34.5567 6.66979 34.2533 6.50313 33.86C6.34313 33.4667 6.26313 32.99 6.26313 32.43C6.26313 31.9433 6.29979 31.5733 6.37313 31.32C6.49313 30.86 6.73313 30.4967 7.09313 30.23C7.45313 29.9633 7.88979 29.83 8.40313 29.83C9.07646 29.83 9.57979 30 9.91313 30.34C10.2465 30.6733 10.4498 31.1667 10.5231 31.82ZM8.40313 30.66C8.11646 30.66 7.87979 30.7333 7.69313 30.88C7.50646 31.02 7.37979 31.21 7.31313 31.45C7.26646 31.5967 7.23646 31.7833 7.22313 32.01C7.22313 32.0367 7.23646 32.05 7.26313 32.05H9.55313C9.57979 32.05 9.59313 32.0367 9.59313 32.01C9.57979 31.79 9.55979 31.6267 9.53313 31.52C9.46646 31.26 9.33313 31.0533 9.13313 30.9C8.93979 30.74 8.69646 30.66 8.40313 30.66ZM13.9945 29.86C14.2078 29.86 14.4011 29.9033 14.5745 29.99C14.6211 30.01 14.6378 30.05 14.6245 30.11L14.4645 30.86C14.4578 30.92 14.4178 30.94 14.3445 30.92C14.2311 30.8733 14.0978 30.85 13.9445 30.85L13.8045 30.86C13.4911 30.8733 13.2311 30.9833 13.0245 31.19C12.8245 31.39 12.7245 31.6533 12.7245 31.98V34.9C12.7245 34.9667 12.6911 35 12.6245 35H11.8645C11.7978 35 11.7645 34.9667 11.7645 34.9V30.01C11.7645 29.9433 11.7978 29.91 11.8645 29.91H12.6245C12.6911 29.91 12.7245 29.9433 12.7245 30.01V30.54C12.7245 30.56 12.7278 30.5733 12.7345 30.58C12.7478 30.58 12.7578 30.5733 12.7645 30.56C13.0645 30.0933 13.4745 29.86 13.9945 29.86ZM17.7154 28.84C17.3821 28.84 17.1554 28.9033 17.0354 29.03C16.9154 29.1567 16.8554 29.3967 16.8554 29.75V29.87C16.8554 29.8967 16.8687 29.91 16.8954 29.91H17.9454C18.0121 29.91 18.0454 29.9433 18.0454 30.01V30.69C18.0454 30.7567 18.0121 30.79 17.9454 30.79H16.8954C16.8687 30.79 16.8554 30.8033 16.8554 30.83V34.9C16.8554 34.9667 16.8221 35 16.7554 35H15.9954C15.9287 35 15.8954 34.9667 15.8954 34.9V30.83C15.8954 30.8033 15.8821 30.79 15.8554 30.79H15.1854C15.1187 30.79 15.0854 30.7567 15.0854 30.69V30.01C15.0854 29.9433 15.1187 29.91 15.1854 29.91H15.8554C15.8821 29.91 15.8954 29.8967 15.8954 29.87V29.69C15.8954 29.25 15.9454 28.91 16.0454 28.67C16.1521 28.43 16.3287 28.26 16.5754 28.16C16.8221 28.0533 17.1687 28 17.6154 28H17.9554C18.0221 28 18.0554 28.0333 18.0554 28.1V28.74C18.0554 28.8067 18.0221 28.84 17.9554 28.84H17.7154ZM19.7254 29.11C19.5387 29.11 19.3854 29.05 19.2654 28.93C19.1454 28.81 19.0854 28.6567 19.0854 28.47C19.0854 28.2833 19.1454 28.13 19.2654 28.01C19.3854 27.89 19.5387 27.83 19.7254 27.83C19.9121 27.83 20.0654 27.89 20.1854 28.01C20.3054 28.13 20.3654 28.2833 20.3654 28.47C20.3654 28.6567 20.3054 28.81 20.1854 28.93C20.0654 29.05 19.9121 29.11 19.7254 29.11ZM19.3254 34.99C19.2587 34.99 19.2254 34.9567 19.2254 34.89V30.01C19.2254 29.9433 19.2587 29.91 19.3254 29.91H20.0854C20.1521 29.91 20.1854 29.9433 20.1854 30.01V34.89C20.1854 34.9567 20.1521 34.99 20.0854 34.99H19.3254ZM21.7961 35C21.7294 35 21.6961 34.9667 21.6961 34.9V28.1C21.6961 28.0333 21.7294 28 21.7961 28H22.5561C22.6228 28 22.6561 28.0333 22.6561 28.1V34.9C22.6561 34.9667 22.6228 35 22.5561 35H21.7961Z" fill="white"/>
<path d="M20 21V19C20 17.9391 19.5786 16.9217 18.8284 16.1716C18.0783 15.4214 17.0609 15 16 15H8C6.93913 15 5.92172 15.4214 5.17157 16.1716C4.42143 16.9217 4 17.9391 4 19V21" stroke="white" stroke-width="2" stroke-linecap="round" stroke-linejoin="round"/>
<path d="M12 11C14.2091 11 16 9.20914 16 7C16 4.79086 14.2091 3 12 3C9.79086 3 8 4.79086 8 7C8 9.20914 9.79086 11 12 11Z" stroke="white" stroke-width="2" stroke-linecap="round" stroke-linejoin="round"/>
</svg>
