<svg width="26" height="37" viewBox="0 0 26 37" fill="none" xmlns="http://www.w3.org/2000/svg">
<path d="M2.59 35C2.53 35 2.49 34.9733 2.47 34.92L0.33 28.11L0.32 28.07C0.32 28.0233 0.35 28 0.41 28H1.22C1.28 28 1.32 28.0267 1.34 28.08L2.99 33.61C2.99667 33.6233 3.00667 33.63 3.02 33.63C3.03333 33.63 3.04333 33.6233 3.05 33.61L4.7 28.08C4.72 28.0267 4.75667 28 4.81 28H5.6C5.67333 28 5.7 28.0367 5.68 28.11L3.52 34.92C3.5 34.9733 3.46 35 3.4 35H2.59ZM8.25852 35.08C7.76518 35.08 7.33518 34.9567 6.96852 34.71C6.60185 34.4567 6.34518 34.1067 6.19852 33.66C6.07852 33.3 6.01852 32.8933 6.01852 32.44C6.01852 31.9667 6.07518 31.5667 6.18852 31.24C6.33518 30.8 6.59185 30.4567 6.95852 30.21C7.32518 29.9567 7.76185 29.83 8.26852 29.83C8.74852 29.83 9.16518 29.9567 9.51852 30.21C9.87852 30.4567 10.1352 30.7967 10.2885 31.23C10.4085 31.57 10.4685 31.97 10.4685 32.43C10.4685 32.8967 10.4085 33.3067 10.2885 33.66C10.1418 34.1067 9.88852 34.4567 9.52852 34.71C9.16852 34.9567 8.74518 35.08 8.25852 35.08ZM8.25852 34.25C8.52518 34.25 8.75852 34.1767 8.95852 34.03C9.15852 33.8767 9.30185 33.6633 9.38852 33.39C9.46185 33.1367 9.49852 32.8233 9.49852 32.45C9.49852 32.0767 9.46518 31.7667 9.39852 31.52C9.31185 31.2467 9.16852 31.0367 8.96852 30.89C8.76852 30.7367 8.52518 30.66 8.23852 30.66C7.96518 30.66 7.72852 30.7367 7.52852 30.89C7.32852 31.0367 7.18518 31.2467 7.09852 31.52C7.02518 31.7533 6.98852 32.0633 6.98852 32.45C6.98852 32.8367 7.02518 33.15 7.09852 33.39C7.17852 33.6633 7.31852 33.8767 7.51852 34.03C7.72518 34.1767 7.97185 34.25 8.25852 34.25ZM11.8254 35C11.7587 35 11.7254 34.9667 11.7254 34.9V28.1C11.7254 28.0333 11.7587 28 11.8254 28H12.5854C12.6521 28 12.6854 28.0333 12.6854 28.1V34.9C12.6854 34.9667 12.6521 35 12.5854 35H11.8254ZM16.5889 30.6C16.5889 30.6667 16.5556 30.7 16.4889 30.7H15.4089C15.3822 30.7 15.3689 30.7133 15.3689 30.74V33.39C15.3689 33.67 15.4322 33.8733 15.5589 34C15.6856 34.12 15.8822 34.18 16.1489 34.18H16.4389C16.5056 34.18 16.5389 34.2133 16.5389 34.28V34.9C16.5389 34.9667 16.5056 35 16.4389 35C16.2256 35.0133 16.0722 35.02 15.9789 35.02C15.4722 35.02 15.0889 34.93 14.8289 34.75C14.5756 34.5633 14.4489 34.2233 14.4489 33.73V30.74C14.4489 30.7133 14.4356 30.7 14.4089 30.7H13.7989C13.7322 30.7 13.6989 30.6667 13.6989 30.6V30.01C13.6989 29.9433 13.7322 29.91 13.7989 29.91H14.4089C14.4356 29.91 14.4489 29.8967 14.4489 29.87V28.69C14.4489 28.6233 14.4822 28.59 14.5489 28.59H15.2689C15.3356 28.59 15.3689 28.6233 15.3689 28.69V29.87C15.3689 29.8967 15.3822 29.91 15.4089 29.91H16.4889C16.5556 29.91 16.5889 29.9433 16.5889 30.01V30.6ZM19.6303 29.83C20.037 29.83 20.3903 29.9033 20.6903 30.05C20.997 30.19 21.2303 30.39 21.3903 30.65C21.557 30.9033 21.6403 31.1933 21.6403 31.52V34.9C21.6403 34.9667 21.607 35 21.5403 35H20.7803C20.7136 35 20.6803 34.9667 20.6803 34.9V34.54C20.6803 34.5067 20.6636 34.5 20.6303 34.52C20.457 34.7 20.2436 34.84 19.9903 34.94C19.7436 35.0333 19.467 35.08 19.1603 35.08C18.667 35.08 18.257 34.9567 17.9303 34.71C17.6103 34.4567 17.4503 34.0767 17.4503 33.57C17.4503 33.05 17.6303 32.6433 17.9903 32.35C18.357 32.05 18.867 31.9 19.5203 31.9H20.6403C20.667 31.9 20.6803 31.8867 20.6803 31.86V31.59C20.6803 31.2967 20.5936 31.07 20.4203 30.91C20.2536 30.7433 19.997 30.66 19.6503 30.66C19.3703 30.66 19.1403 30.7167 18.9603 30.83C18.787 30.9367 18.6803 31.0833 18.6403 31.27C18.6203 31.3367 18.5803 31.3667 18.5203 31.36L17.7103 31.25C17.6436 31.2367 17.6136 31.21 17.6203 31.17C17.6736 30.7767 17.8836 30.4567 18.2503 30.21C18.617 29.9567 19.077 29.83 19.6303 29.83ZM19.3703 34.27C19.7236 34.27 20.0303 34.1767 20.2903 33.99C20.5503 33.8033 20.6803 33.5667 20.6803 33.28V32.69C20.6803 32.6633 20.667 32.65 20.6403 32.65H19.7003C19.307 32.65 18.9936 32.7267 18.7603 32.88C18.527 33.0333 18.4103 33.2467 18.4103 33.52C18.4103 33.7667 18.497 33.9533 18.6703 34.08C18.8503 34.2067 19.0836 34.27 19.3703 34.27ZM25.1663 29.86C25.3797 29.86 25.573 29.9033 25.7463 29.99C25.793 30.01 25.8097 30.05 25.7963 30.11L25.6363 30.86C25.6297 30.92 25.5897 30.94 25.5163 30.92C25.403 30.8733 25.2697 30.85 25.1163 30.85L24.9763 30.86C24.663 30.8733 24.403 30.9833 24.1963 31.19C23.9963 31.39 23.8963 31.6533 23.8963 31.98V34.9C23.8963 34.9667 23.863 35 23.7963 35H23.0363C22.9697 35 22.9363 34.9667 22.9363 34.9V30.01C22.9363 29.9433 22.9697 29.91 23.0363 29.91H23.7963C23.863 29.91 23.8963 29.9433 23.8963 30.01V30.54C23.8963 30.56 23.8997 30.5733 23.9063 30.58C23.9197 30.58 23.9297 30.5733 23.9363 30.56C24.2363 30.0933 24.6463 29.86 25.1663 29.86Z" fill="white"/>
<path d="M15 4L7 12L15 20" stroke="white" stroke-width="2" stroke-linecap="round" stroke-linejoin="round"/>
</svg>
