<svg width="773" height="773" viewBox="0 0 773 773" fill="none" xmlns="http://www.w3.org/2000/svg">
<path d="M386.5 773C599.958 773 773 599.958 773 386.5C773 173.042 599.958 0 386.5 0C173.042 0 0 173.042 0 386.5C0 599.958 173.042 773 386.5 773Z" fill="#33495F"/>
<path opacity="0.2" d="M239.631 150.735C259.342 147.256 270.945 135.661 274.416 115.95C277.894 135.661 289.497 147.256 309.201 150.735C289.497 154.221 277.894 165.808 274.416 185.52C270.945 165.808 259.342 154.221 239.631 150.735Z" fill="white"/>
<path opacity="0.1" d="M548.83 575.885C568.542 572.406 580.145 560.811 583.615 541.1C587.094 560.811 598.697 572.406 618.4 575.885C598.697 579.371 587.094 590.958 583.615 610.67C580.145 590.958 568.542 579.371 548.83 575.885ZM85.0303 498.585C104.742 495.106 116.345 483.511 119.815 463.8C123.294 483.511 134.897 495.106 154.6 498.585C134.897 502.071 123.294 513.658 119.815 533.37C116.345 513.658 104.742 502.071 85.0303 498.585Z" fill="white"/>
<path d="M773 0.773C771.794 0.91214 772.095 1.22134 772.227 0C591.994 23.0277 489.78 94.9321 431.836 170.331C429.786 173.002 427.771 175.7 425.791 178.424L425.729 178.501C363.426 264.335 356.252 354.127 355.58 378.77H347.85L340.12 401.96L371.04 432.88L394.23 425.15V417.42C412.578 417.063 430.858 415.063 448.85 411.445L448.865 411.46C454.5 410.053 456.07 412.048 456.07 440.61V510.18C456.07 524.164 463.359 529.482 471.104 521.729C489.834 502.96 494.318 498.361 536.809 455.807C568.966 423.596 572.955 404.828 559.667 370.321C648.956 319.782 745.419 215.574 773 0.773Z" fill="#0C97AA"/>
<path d="M371.04 432.88L340.12 401.96L347.85 378.77H363.31L394.23 409.69V425.15L371.04 432.88ZM401.96 216.44C388.679 211.106 386.5 208.71 371.04 208.71C355.58 208.71 338.705 219.377 318.004 240.117C285.121 273.039 280.514 277.522 252.175 305.884C242.915 315.16 257.123 316.93 278.28 316.93C318.731 316.93 350.145 315.964 361.694 327.907C376.945 343.676 401.96 216.44 401.96 216.44ZM772.999 0C768.06 38.4413 760.894 74.0457 751.966 105.731C743.857 90.5028 732.162 71.9972 717.181 57.2484C700.554 40.8608 679.984 29.173 664.416 21.8063C710.997 8.43343 748.132 3.18476 772.999 0Z" fill="#008496"/>
<path opacity="0.3" d="M559.667 370.321C572.955 404.82 569.809 422.792 537.606 454.996C531.082 461.52 477.096 515.746 471.097 521.729C463.344 529.474 456.325 524.164 456.07 510.18V505.14C479.26 481.95 530.966 436.049 541.1 417.42C547.037 406.513 543.821 389.175 541.1 378.77C515.498 392.375 452.081 410.417 448.866 411.46C424.423 416.454 405.57 416.979 394.23 417.42V412.349C394.23 412.349 625.937 337.654 773 0C745.218 216.803 648.957 319.782 559.667 370.321Z" fill="white"/>
<path d="M599.074 216.44C571.37 216.44 548.829 193.899 548.829 166.195C548.829 138.49 571.37 115.95 599.074 115.95C626.778 115.95 649.319 138.49 649.319 166.195C649.319 193.899 626.778 216.44 599.074 216.44Z" fill="white"/>
<path d="M599.074 123.68C610.35 123.68 621.164 128.159 629.137 136.132C637.11 144.105 641.589 154.919 641.589 166.195C641.589 177.47 637.11 188.284 629.137 196.257C621.164 204.23 610.35 208.71 599.074 208.71C587.798 208.71 576.985 204.23 569.012 196.257C561.038 188.284 556.559 177.47 556.559 166.195C556.559 154.919 561.038 144.105 569.012 136.132C576.985 128.159 587.798 123.68 599.074 123.68ZM599.074 108.22C567.095 108.22 541.099 134.223 541.099 166.195C541.099 198.166 567.095 224.17 599.074 224.17C631.053 224.17 657.049 198.166 657.049 166.195C657.049 134.223 631.053 108.22 599.074 108.22Z" fill="#008496"/>
<path d="M340.119 401.96L371.039 432.88L100.489 711.16L54.1094 664.78L340.119 401.96Z" fill="#D7DCDE"/>
<path d="M339.153 401.96L354.613 417.42L57.9747 707.295L34.7847 684.105L339.153 401.96Z" fill="#F7F7F7"/>
<g clip-path="url(#clip0_259_188)">
<path d="M503.599 198.236L500.734 195.35C500.274 194.886 500.181 194.519 500.455 194.247C500.706 193.998 501.057 193.838 501.508 193.767C501.97 193.686 502.463 193.68 502.986 193.75C503.521 193.833 504.051 193.979 504.576 194.188C505.113 194.41 505.57 194.687 505.947 195.021L507.396 196.412C509.27 198.301 510.787 200.285 511.946 202.366C513.116 204.435 513.806 206.556 514.015 208.73C514.225 210.904 513.895 213.093 513.027 215.3C512.17 217.518 510.646 219.714 508.456 221.889C507.417 222.919 506.29 223.814 505.073 224.574C503.868 225.346 502.62 225.96 501.329 226.416C500.037 226.873 498.732 227.166 497.412 227.297C496.104 227.44 494.822 227.416 493.567 227.223C492.323 227.02 491.128 226.638 489.982 226.077C488.837 225.516 487.798 224.767 486.867 223.829C486.454 223.413 486.379 223.075 486.641 222.814C486.847 222.61 487.136 222.582 487.51 222.73C488.957 223.298 490.366 223.68 491.738 223.875C493.109 224.07 494.471 224.027 495.823 223.746C497.199 223.465 498.575 222.912 499.953 222.087C501.343 221.273 502.774 220.136 504.246 218.675C505.707 217.225 506.853 215.721 507.686 214.164C508.53 212.618 508.973 210.999 509.015 209.307C509.057 207.615 508.646 205.854 507.781 204.024C506.927 202.183 505.533 200.253 503.599 198.236ZM479.556 214.992L497.99 196.693C498.401 196.286 498.816 196.156 499.236 196.306C499.668 196.467 500.184 196.85 500.786 197.456C501.446 198.121 501.837 198.652 501.96 199.049C502.105 199.447 501.967 199.856 501.545 200.275L485.884 215.82C485.416 216.285 485.423 216.76 485.907 217.247L488.843 220.205C489.35 220.716 489.46 221.113 489.175 221.396C489.004 221.566 488.599 221.602 487.959 221.506C487.332 221.422 486.627 221.237 485.846 220.951C485.064 220.666 484.246 220.275 483.391 219.78C482.537 219.284 481.832 218.757 481.278 218.198L479.545 216.452C479.062 215.965 479.065 215.478 479.556 214.992ZM505.33 243.49C504.34 242.493 503.61 241.507 503.142 240.533C502.675 239.583 502.496 238.604 502.607 237.598C502.73 236.58 503.136 235.517 503.825 234.408C504.514 233.3 505.521 232.088 506.844 230.775L516.138 221.549C516.446 221.243 516.814 221.043 517.242 220.949C517.692 220.855 518.138 220.837 518.58 220.894C519.033 220.963 519.459 221.095 519.856 221.29C520.277 221.485 520.617 221.714 520.876 221.975C521.289 222.391 521.25 222.842 520.759 223.329L510.336 233.676L509.088 235.055C508.485 235.748 508.02 236.398 507.694 237.005C507.379 237.601 507.215 238.189 507.201 238.768C507.199 239.336 507.341 239.902 507.629 240.466C507.928 241.041 508.384 241.638 508.997 242.255C509.976 243.241 511.088 243.917 512.336 244.283C512.685 244.384 512.895 244.47 512.966 244.542C513.072 244.648 513.103 244.759 513.058 244.874C513.026 245.001 512.878 245.195 512.615 245.455C512.136 245.931 511.554 246.166 510.87 246.162C510.197 246.146 509.511 246.002 508.811 245.73C508.11 245.458 507.444 245.106 506.811 244.674C506.189 244.253 505.695 243.858 505.33 243.49ZM531.866 234.518L516.53 249.741C515.913 250.352 515.105 250.565 514.105 250.379C513.116 250.205 512.351 249.844 511.809 249.298C511.396 248.882 511.435 248.431 511.926 247.944L527.262 232.721C527.855 232.132 528.657 231.925 529.669 232.1C530.681 232.275 531.452 232.629 531.983 233.164C532.395 233.579 532.356 234.031 531.866 234.518ZM519.495 255.569L543.064 232.174C543.68 231.563 544.482 231.344 545.471 231.519C546.471 231.704 547.242 232.071 547.785 232.617C548.197 233.033 548.158 233.484 547.668 233.971L524.099 257.366C523.471 257.989 522.663 258.214 521.675 258.039C520.697 257.854 519.932 257.482 519.378 256.923C518.965 256.508 519.004 256.056 519.495 255.569ZM532.989 268.137C531.649 268.453 530.679 268.308 530.077 267.702C529.794 267.417 529.717 266.917 529.844 266.201L532.37 251.526C532.466 251.03 532.605 250.691 532.788 250.51C533.073 250.226 533.546 250.075 534.207 250.056L545.055 249.723C546.087 249.689 546.86 249.818 547.375 250.108C547.89 250.399 548.625 251.014 549.579 251.952C549.945 252.321 549.985 252.646 549.7 252.93C549.494 253.133 549.055 253.227 548.382 253.211L537.875 253.136C537.295 253.145 536.903 253.252 536.697 253.455C536.526 253.625 536.416 253.936 536.365 254.387L534.682 266.385C534.587 266.905 534.413 267.29 534.162 267.539C533.877 267.822 533.486 268.021 532.989 268.137ZM560.562 261.955C561.552 262.953 562.317 263.974 562.856 265.019C563.395 266.065 563.656 267.138 563.639 268.239C563.634 269.329 563.333 270.453 562.737 271.61C562.165 272.768 561.262 273.958 560.03 275.181L550.753 284.39C550.468 284.673 550.105 284.844 549.666 284.903C549.238 284.974 548.791 284.969 548.326 284.889C547.884 284.809 547.459 284.665 547.049 284.458C546.64 284.275 546.324 284.07 546.1 283.844C545.687 283.429 545.726 282.977 546.217 282.49L556.195 272.585C559.562 269.244 559.866 266.183 557.107 263.404C555.503 261.789 553.619 260.747 551.455 260.278C550.605 260.084 550.104 259.909 549.95 259.755C549.773 259.577 549.776 259.397 549.959 259.216C550.278 258.899 550.838 258.709 551.637 258.647C555.134 258.382 558.109 259.485 560.562 261.955ZM545.267 280.745C544.338 280.677 543.371 280.41 542.366 279.946C541.35 279.493 540.506 278.928 539.834 278.25C538.266 276.671 537.462 275.063 537.424 273.427C537.409 271.791 537.989 270.39 539.164 269.223C540.009 268.385 540.954 268.048 542 268.212C542.954 268.351 543.631 268.622 544.031 269.026C544.161 269.156 544.227 269.314 544.23 269.5C544.234 269.686 544.144 269.869 543.961 270.05C542.66 271.342 541.943 272.513 541.81 273.566C541.688 274.606 542.216 275.721 543.395 276.908C543.749 277.265 544.236 277.642 544.857 278.039C545.49 278.425 546.086 278.695 546.645 278.847C546.982 278.936 547.204 279.035 547.31 279.141C547.475 279.308 547.347 279.6 546.925 280.019C546.4 280.54 545.847 280.783 545.267 280.745ZM554.368 271.428C554.478 271.767 554.477 272.075 554.365 272.35C554.265 272.615 553.959 273.002 553.445 273.512C552.989 273.965 552.616 274.251 552.329 274.372C552.064 274.493 551.831 274.453 551.631 274.251C551.501 274.121 551.37 273.886 551.237 273.546C550.596 271.965 549.828 270.723 548.932 269.82C547.482 268.36 545.595 267.474 543.27 267.164C542.538 267.065 542.101 266.945 541.96 266.802C541.771 266.612 541.78 266.415 541.985 266.211C542.305 265.894 542.77 265.667 543.383 265.531C545.023 265.152 546.613 265.213 548.152 265.714C549.714 266.215 551.12 267.095 552.37 268.354C553.324 269.316 553.99 270.341 554.368 271.428Z" fill="white"/>
<path d="M534.782 231.933C533.37 233.334 535.033 229.995 533.991 228.945C532.949 227.896 529.597 229.534 531.009 228.132C532.421 226.731 534.41 226.446 535.451 227.496C536.493 228.545 536.193 230.532 534.782 231.933Z" fill="white"/>
<path d="M523.966 221.037C522.555 222.439 524.217 219.099 523.175 218.05C522.134 217 518.782 218.638 520.194 217.237C521.605 215.835 523.594 215.55 524.636 216.6C525.678 217.649 525.378 219.636 523.966 221.037Z" fill="white"/>
<path d="M549.462 232.126L549.84 231.238C549.908 231.077 549.755 230.899 549.584 230.94L549.296 231.01C549.245 231.022 549.194 230.982 549.192 230.928C549.19 230.856 549.103 230.817 549.053 230.866L520.655 258.448C520.573 258.528 520.576 258.663 520.661 258.748L520.938 259.027C520.956 259.046 520.977 259.061 521.001 259.072L521.662 259.391C521.742 259.43 521.836 259.416 521.897 259.356L549.42 232.188C549.438 232.171 549.452 232.15 549.462 232.126Z" fill="#F7B14C"/>
<path d="M546.968 228.652L518.509 256.288L518.741 256.67L547.714 228.524L546.968 228.652Z" fill="#F7F7EB"/>
<path d="M547.49 228.592L518.669 256.741L519.132 257.353L547.012 230.291L547.87 228.827L547.713 228.523L547.49 228.592Z" fill="#F7DF8B"/>
<path d="M547.497 229.804L546.943 230.225C546.893 230.264 546.864 230.324 546.866 230.389L546.869 230.497C546.87 230.553 546.849 230.606 546.81 230.644L519.581 257.368C519.5 257.448 519.503 257.582 519.588 257.668L520.354 258.44C520.438 258.524 520.571 258.529 520.651 258.451L549.01 230.91C549.031 230.89 549.047 230.866 549.057 230.839L549.291 230.223C549.31 230.172 549.308 230.114 549.285 230.061L549.112 229.676C549.094 229.635 549.063 229.6 549.025 229.576L548.794 229.432C548.738 229.397 548.67 229.388 548.61 229.409L547.552 229.775C547.532 229.782 547.514 229.792 547.497 229.804Z" fill="#F7D14C"/>
<path d="M546.159 228.995L518.469 256.175C518.408 256.235 518.411 256.336 518.474 256.4C518.537 256.464 518.637 256.467 518.698 256.408L546.462 229.154L546.159 228.995Z" fill="#D19146"/>
<path d="M547.016 230.441L546.787 230.209L519.242 257.246C519.181 257.305 519.184 257.406 519.247 257.47C519.31 257.534 519.41 257.537 519.47 257.478L547.016 230.441Z" fill="#D19146"/>
<path d="M549.371 232.084L521.845 259.407C521.793 259.459 521.813 259.549 521.883 259.581C521.923 259.598 521.968 259.591 521.998 259.562L549.524 232.239L549.371 232.084Z" fill="#D19146"/>
<path d="M519.263 257.325L518.678 256.251C518.628 256.16 518.506 256.138 518.436 256.208C518.39 256.253 518.381 256.325 518.414 256.384L519.045 257.542C519.057 257.564 519.072 257.584 519.09 257.601L520.786 259.168C520.808 259.189 520.835 259.205 520.863 259.215L521.889 259.588C521.926 259.601 521.966 259.593 521.992 259.567C522.041 259.518 522.022 259.432 521.956 259.402L521.071 258.998C521.049 258.988 521.029 258.975 521.011 258.958L519.309 257.384C519.291 257.367 519.275 257.347 519.263 257.325Z" fill="#D19146"/>
<path d="M539.299 240.856L520.988 259.032C520.94 259.08 520.954 259.163 521.015 259.2C521.057 259.224 521.109 259.218 521.141 259.186L539.452 241.01C539.493 240.97 539.491 240.904 539.449 240.861C539.407 240.818 539.339 240.816 539.299 240.856Z" fill="#D19146"/>
<path d="M551.531 226.112L550.291 226.737C550.283 226.74 550.276 226.745 550.27 226.751C550.218 226.803 550.256 226.896 550.332 226.901L551.909 227.016C551.968 227.02 552.025 227 552.066 226.959L552.198 226.828C552.213 226.813 552.225 226.797 552.234 226.778L552.86 225.559L551.531 226.112Z" fill="#575656"/>
<path d="M550.956 226.988L548.104 229.208L548.406 229.367L548.705 229.377L549.084 229.613L549.394 230.071L549.329 230.442L549.485 230.745L551.849 226.869L550.956 226.988Z" fill="#F5E8C3"/>
<path d="M549.413 230.818L551.849 226.869L551.998 226.874L550.087 230.914L549.413 230.818Z" fill="#E9CC9C"/>
<path d="M550.36 226.969L547.706 228.225L548.104 229.208L550.957 226.989L550.36 226.969Z" fill="#F7F1D8"/>
<path d="M546.947 228.363L546.159 228.994L546.161 229.069C546.162 229.11 546.196 229.145 546.238 229.146L546.269 229.147C546.293 229.148 546.313 229.168 546.313 229.192C546.314 229.231 546.362 229.252 546.389 229.226L546.922 228.696C546.954 228.665 546.995 228.645 547.04 228.64L547.473 228.593C547.485 228.591 547.498 228.589 547.509 228.585L547.541 228.575C547.64 228.545 547.75 228.594 547.8 228.69L547.807 228.704C547.846 228.779 547.839 228.867 547.789 228.929L546.775 230.204C546.75 230.235 546.774 230.283 546.815 230.284C546.842 230.285 546.864 230.307 546.865 230.334L546.866 230.414C546.867 230.428 546.873 230.441 546.882 230.45C546.896 230.465 546.917 230.47 546.935 230.465L547.016 230.44L547.487 229.831C547.51 229.801 547.541 229.778 547.577 229.766L548.61 229.409C548.67 229.388 548.738 229.397 548.794 229.432L549.024 229.575C549.063 229.6 549.094 229.635 549.112 229.676L549.285 230.061C549.308 230.113 549.31 230.171 549.291 230.223L549.057 230.84C549.047 230.866 549.031 230.889 549.012 230.909L548.971 230.949C548.925 230.995 548.91 231.064 548.933 231.128L548.938 231.142C548.961 231.207 549.022 231.252 549.089 231.254C549.113 231.255 549.137 231.25 549.158 231.24L549.407 231.122C549.591 231.035 549.79 231.244 549.694 231.423L549.341 232.075C549.322 232.112 549.349 232.158 549.392 232.159L549.41 232.16C549.43 232.161 549.447 232.178 549.448 232.198C549.448 232.219 549.466 232.236 549.486 232.237L549.523 232.238L552.22 226.806L551.998 226.873L550.323 230.344C550.307 230.38 550.279 230.409 550.245 230.428L549.93 230.61L549.757 230.692C549.596 230.768 549.409 230.612 549.453 230.438L549.524 230.152C549.536 230.103 549.53 230.049 549.505 230.002L549.402 229.803C549.392 229.782 549.378 229.763 549.362 229.747L549.099 229.482C549.086 229.47 549.073 229.459 549.057 229.449L548.763 229.266C548.723 229.241 548.676 229.229 548.63 229.232L548.358 229.254C548.205 229.266 548.082 229.114 548.128 228.97L548.143 228.918C548.16 228.866 548.154 228.808 548.128 228.757L548.041 228.588C548.022 228.552 547.994 228.522 547.959 228.5C547.817 228.411 547.819 228.206 547.962 228.136L550.314 226.99C550.344 226.976 550.377 226.969 550.41 226.97L550.807 226.983L550.939 226.988C550.951 226.988 550.962 226.987 550.974 226.986L551.403 226.928L551.849 226.868L550.772 226.905C550.745 226.906 550.717 226.901 550.691 226.892L550.553 226.841C550.521 226.83 550.492 226.812 550.469 226.788L550.464 226.783C550.397 226.716 550.297 226.697 550.216 226.737L546.982 228.34C546.97 228.346 546.958 228.354 546.947 228.363Z" fill="#DBBD8D"/>
</g>
<defs>
<clipPath id="clip0_259_188">
<rect x="517.12" y="173" width="106.038" height="72.0282" rx="36.0141" transform="rotate(45.2122 517.12 173)" fill="white"/>
</clipPath>
</defs>
</svg>
