<svg width="360" height="186" viewBox="0 0 360 186" fill="none" xmlns="http://www.w3.org/2000/svg">
<path d="M360.5 185.168L-3.05176e-05 185.168C-3.05176e-05 185.168 -3.05176e-05 101.168 -3.05176e-05 58.668C-3.05176e-05 16.168 131.846 94.2289 179.048 94.2289C226.25 94.2289 205.221 86.9478 274.36 82.7693C343.5 78.5908 360.5 131.5 360.5 185.168Z" fill="#0C97AA" fill-opacity="0.2"/>
<g clip-path="url(#clip0_270_360)">
<path d="M133.215 38.05C130.354 29.4921 121.522 24.7357 115.711 26.6814C109.9 28.627 105.704 37.7458 108.565 46.3037C111.212 54.2251 119.235 58.7982 124.754 57.9821C124.714 58.0514 124.688 58.1276 124.677 58.2067L124.508 59.6155C124.495 59.7229 124.51 59.8318 124.551 59.9319C124.592 60.0319 124.658 60.1199 124.742 60.1873C124.827 60.2547 124.927 60.2994 125.034 60.317C125.14 60.3347 125.25 60.3249 125.351 60.2884L128.194 59.2681C128.296 59.2316 128.387 59.1696 128.458 59.0882C128.529 59.0067 128.578 58.9084 128.6 58.8026C128.623 58.6968 128.618 58.587 128.586 58.4837C128.554 58.3803 128.496 58.2868 128.418 58.2121L127.394 57.2316C127.357 57.1983 127.317 57.1693 127.274 57.1454C132.196 54.4903 135.868 45.9886 133.215 38.05Z" fill="#F1B91D"/>
<path d="M122.86 31.7537C125.235 32.9807 127.049 35.0737 127.928 37.6006C128.806 40.1276 128.681 42.8956 127.58 45.3333C127.334 45.8938 128.238 46.1885 128.483 45.6317C129.639 42.9941 129.757 40.0163 128.812 37.2956C127.867 34.5748 125.929 32.3122 123.388 30.9615C122.851 30.6769 122.32 31.467 122.86 31.7537Z" fill="white"/>
<path d="M249.018 25.5755C246.158 17.0176 237.325 12.2612 231.514 14.2069C225.703 16.1526 221.508 25.2713 224.368 33.8292C227.016 41.7506 235.038 46.3237 240.557 45.5076C240.517 45.5769 240.491 45.6531 240.48 45.7322L240.311 47.141C240.299 47.2484 240.313 47.3573 240.354 47.4574C240.395 47.5574 240.461 47.6454 240.546 47.7128C240.63 47.7802 240.731 47.8249 240.837 47.8426C240.944 47.8602 241.053 47.8504 241.155 47.8139L243.998 46.7936C244.099 46.7571 244.19 46.6952 244.261 46.6137C244.332 46.5322 244.381 46.4339 244.404 46.3281C244.426 46.2223 244.421 46.1125 244.39 46.0092C244.358 45.9058 244.3 45.8123 244.222 45.7376L243.197 44.7571C243.161 44.7238 243.12 44.6948 243.077 44.6709C248 42.0158 251.672 33.5141 249.018 25.5755Z" fill="#F1B91D"/>
<path d="M238.664 19.2793C241.039 20.5063 242.853 22.5993 243.731 25.1263C244.61 27.6532 244.485 30.4212 243.383 32.8589C243.137 33.4194 244.042 33.7142 244.286 33.1573C245.443 30.5197 245.561 27.542 244.616 24.8212C243.671 22.1004 241.733 19.8378 239.191 18.4871C238.655 18.2026 238.123 18.9926 238.664 19.2793Z" fill="white"/>
<path d="M181.769 11.8016C178.909 3.24364 170.076 -1.51272 164.265 0.432955C158.454 2.37863 154.259 11.4974 157.119 20.0553C159.767 27.9767 167.789 32.5497 173.308 31.7337C173.268 31.8029 173.242 31.8792 173.231 31.9583L173.062 33.3671C173.049 33.4745 173.064 33.5834 173.105 33.6835C173.146 33.7835 173.212 33.8714 173.297 33.9389C173.381 34.0063 173.481 34.0509 173.588 34.0686C173.695 34.0863 173.804 34.0764 173.906 34.0399L176.749 33.0197C176.85 32.9832 176.941 32.9212 177.012 32.8398C177.083 32.7583 177.132 32.66 177.155 32.5542C177.177 32.4484 177.172 32.3386 177.14 32.2352C177.109 32.1319 177.051 32.0384 176.973 31.9636L175.948 30.9832C175.911 30.9498 175.871 30.9209 175.828 30.897C180.75 28.2419 184.423 19.7402 181.769 11.8016Z" fill="#F1B91D"/>
<path d="M171.414 5.50539C173.79 6.73241 175.604 8.82541 176.482 11.3524C177.36 13.8793 177.236 16.6473 176.134 19.085C175.888 19.6455 176.793 19.9402 177.037 19.3834C178.194 16.7458 178.312 13.7681 177.367 11.0473C176.422 8.32649 174.484 6.06388 171.942 4.71319C171.405 4.42863 170.874 5.21872 171.414 5.50539Z" fill="white"/>
<path d="M167.424 52.9807C167.8 52.9807 168.105 52.6753 168.105 52.2986C168.105 51.9219 167.8 51.6166 167.424 51.6166C167.047 51.6166 166.742 51.9219 166.742 52.2986C166.742 52.6753 167.047 52.9807 167.424 52.9807Z" fill="#CCCCCC"/>
<path d="M165.971 80.3411C166.715 80.3411 167.317 79.7379 167.317 78.9937C167.317 78.2496 166.715 77.6464 165.971 77.6464C165.228 77.6464 164.625 78.2496 164.625 78.9937C164.625 79.7379 165.228 80.3411 165.971 80.3411Z" fill="#CCCCCC"/>
<path d="M143.435 75.153C143.864 75.153 144.213 74.8044 144.213 74.3744C144.213 73.9444 143.864 73.5958 143.435 73.5958C143.005 73.5958 142.657 73.9444 142.657 74.3744C142.657 74.8044 143.005 75.153 143.435 75.153Z" fill="#CCCCCC"/>
<path d="M155.252 62.4047C155.717 62.4047 156.094 62.0272 156.094 61.5615C156.094 61.0959 155.717 60.7184 155.252 60.7184C154.787 60.7184 154.41 61.0959 154.41 61.5615C154.41 62.0272 154.787 62.4047 155.252 62.4047Z" fill="#CCCCCC"/>
<path d="M196.704 111.769C197.08 111.769 197.385 111.464 197.385 111.087C197.385 110.71 197.08 110.405 196.704 110.405C196.327 110.405 196.022 110.71 196.022 111.087C196.022 111.464 196.327 111.769 196.704 111.769Z" fill="#CCCCCC"/>
<path d="M174.387 97.7443C175.13 97.7443 175.733 97.1411 175.733 96.3969C175.733 95.6528 175.13 95.0496 174.387 95.0496C173.643 95.0496 173.041 95.6528 173.041 96.3969C173.041 97.1411 173.643 97.7443 174.387 97.7443Z" fill="#CCCCCC"/>
<path d="M189.716 80.0076C190.146 80.0076 190.494 79.659 190.494 79.229C190.494 78.799 190.146 78.4504 189.716 78.4504C189.286 78.4504 188.938 78.799 188.938 79.229C188.938 79.659 189.286 80.0076 189.716 80.0076Z" fill="#CCCCCC"/>
<path d="M194.831 96.7411C195.297 96.7411 195.674 96.3636 195.674 95.898C195.674 95.4323 195.297 95.0548 194.831 95.0548C194.366 95.0548 193.989 95.4323 193.989 95.898C193.989 96.3636 194.366 96.7411 194.831 96.7411Z" fill="#CCCCCC"/>
<path d="M240.204 140.167C240.948 139.544 239.943 137.118 237.961 134.748C235.979 132.378 233.769 130.962 233.026 131.585C232.282 132.208 233.287 134.634 235.269 137.004C237.252 139.373 239.461 140.79 240.204 140.167Z" fill="#282828"/>
<path d="M224.721 145.125C230.897 145.125 235.904 140.114 235.904 133.933C235.904 127.751 230.897 122.74 224.721 122.74C218.545 122.74 213.539 127.751 213.539 133.933C213.539 140.114 218.545 145.125 224.721 145.125Z" fill="#282828"/>
<path d="M229.454 142.716H226.057V148.809H229.454V142.716Z" fill="#282828"/>
<path d="M222.66 142.716H219.263V148.809H222.66V142.716Z" fill="#282828"/>
<path d="M226.623 149.942C228.187 149.942 229.454 149.466 229.454 148.879C229.454 148.293 228.187 147.817 226.623 147.817C225.06 147.817 223.792 148.293 223.792 148.879C223.792 149.466 225.06 149.942 226.623 149.942Z" fill="#282828"/>
<path d="M219.829 149.8C221.393 149.8 222.66 149.324 222.66 148.738C222.66 148.151 221.393 147.675 219.829 147.675C218.266 147.675 216.998 148.151 216.998 148.738C216.998 149.324 218.266 149.8 219.829 149.8Z" fill="#282828"/>
<path d="M221.21 119.863C222.209 115.838 226.616 113.47 231.055 114.573C235.493 115.676 238.282 119.833 237.283 123.858C236.285 127.883 232.972 127.896 228.534 126.792C224.095 125.689 220.212 123.888 221.21 119.863Z" fill="#E6E6E6"/>
<path d="M217.178 131.137C217.593 130.261 215.668 128.476 212.878 127.152C210.088 125.827 207.49 125.464 207.074 126.341C206.659 127.218 208.584 129.002 211.374 130.326C214.164 131.651 216.763 132.014 217.178 131.137Z" fill="#282828"/>
<path d="M223.05 135.302C225.109 135.302 226.778 133.632 226.778 131.571C226.778 129.51 225.109 127.839 223.05 127.839C220.991 127.839 219.321 129.51 219.321 131.571C219.321 133.632 220.991 135.302 223.05 135.302Z" fill="white"/>
<path d="M221.517 131.477C222.204 131.477 222.76 130.92 222.76 130.233C222.76 129.546 222.204 128.989 221.517 128.989C220.831 128.989 220.275 129.546 220.275 130.233C220.275 130.92 220.831 131.477 221.517 131.477Z" fill="#3F3D56"/>
<path d="M225.388 139.345C225.447 139.667 225.441 139.997 225.373 140.316C225.304 140.635 225.173 140.938 224.987 141.206C224.801 141.475 224.564 141.705 224.29 141.882C224.016 142.059 223.709 142.18 223.388 142.238C223.067 142.297 222.738 142.291 222.419 142.223C222.099 142.154 221.797 142.022 221.529 141.837C221.26 141.651 221.031 141.414 220.854 141.139C220.677 140.865 220.556 140.558 220.498 140.236V140.236L220.497 140.232C220.252 138.88 221.297 138.401 222.647 138.157C223.998 137.912 225.144 137.993 225.388 139.345Z" fill="white"/>
<path d="M132.786 126.108C133.888 123.221 134.048 120.599 133.143 120.253C132.237 119.906 130.609 121.966 129.507 124.853C128.404 127.74 128.245 130.361 129.15 130.708C130.056 131.054 131.683 128.995 132.786 126.108Z" fill="#282828"/>
<path d="M120.81 145.125C126.986 145.125 131.993 140.114 131.993 133.933C131.993 127.751 126.986 122.74 120.81 122.74C114.635 122.74 109.628 127.751 109.628 133.933C109.628 140.114 114.635 145.125 120.81 145.125Z" fill="#282828"/>
<path d="M119.112 142.716H115.715V148.809H119.112V142.716Z" fill="#282828"/>
<path d="M125.906 142.716H122.509V148.809H125.906V142.716Z" fill="#282828"/>
<path d="M118.546 149.942C120.109 149.942 121.377 149.466 121.377 148.879C121.377 148.293 120.109 147.817 118.546 147.817C116.982 147.817 115.715 148.293 115.715 148.879C115.715 149.466 116.982 149.942 118.546 149.942Z" fill="#282828"/>
<path d="M125.34 149.8C126.904 149.8 128.171 149.324 128.171 148.738C128.171 148.151 126.904 147.675 125.34 147.675C123.777 147.675 122.509 148.151 122.509 148.738C122.509 149.324 123.777 149.8 125.34 149.8Z" fill="#282828"/>
<path d="M121.094 134.924C123.204 134.924 124.915 133.212 124.915 131.099C124.915 128.986 123.204 127.274 121.094 127.274C118.983 127.274 117.272 128.986 117.272 131.099C117.272 133.212 118.983 134.924 121.094 134.924Z" fill="white"/>
<path d="M121.094 132.374C121.797 132.374 122.367 131.803 122.367 131.099C122.367 130.395 121.797 129.824 121.094 129.824C120.39 129.824 119.82 130.395 119.82 131.099C119.82 131.803 120.39 132.374 121.094 132.374Z" fill="#3F3D56"/>
<path d="M109.963 123.524C109.06 119.476 111.947 115.387 116.41 114.389C120.873 113.392 125.223 115.864 126.126 119.911C127.029 123.959 124.071 125.451 119.608 126.449C115.145 127.446 110.866 127.571 109.963 123.524Z" fill="#E6E6E6"/>
<path d="M113.267 131.137C113.683 130.261 111.758 128.476 108.968 127.152C106.177 125.827 103.579 125.464 103.164 126.341C102.748 127.218 104.673 129.002 107.463 130.326C110.253 131.651 112.852 132.014 113.267 131.137Z" fill="#282828"/>
<path d="M115.318 137.97C115.318 139.066 118.136 141.229 121.263 141.229C124.39 141.229 127.322 138.145 127.322 137.049C127.322 135.954 124.39 137.262 121.263 137.262C118.136 137.262 115.318 136.875 115.318 137.97Z" fill="white"/>
<path d="M174.225 134.47C180.401 134.47 185.408 129.459 185.408 123.277C185.408 117.096 180.401 112.085 174.225 112.085C168.049 112.085 163.043 117.096 163.043 123.277C163.043 129.459 168.049 134.47 174.225 134.47Z" fill="#282828"/>
<path d="M172.527 132.061H169.13V138.153H172.527V132.061Z" fill="#282828"/>
<path d="M179.321 132.061H175.924V138.153H179.321V132.061Z" fill="#282828"/>
<path d="M171.961 139.287C173.524 139.287 174.792 138.811 174.792 138.224C174.792 137.637 173.524 137.161 171.961 137.161C170.397 137.161 169.13 137.637 169.13 138.224C169.13 138.811 170.397 139.287 171.961 139.287Z" fill="#282828"/>
<path d="M178.755 139.145C180.318 139.145 181.586 138.669 181.586 138.082C181.586 137.496 180.318 137.02 178.755 137.02C177.191 137.02 175.924 137.496 175.924 138.082C175.924 138.669 177.191 139.145 178.755 139.145Z" fill="#282828"/>
<path d="M163.378 112.868C162.475 108.821 165.361 104.731 169.825 103.734C174.288 102.736 178.638 105.209 179.541 109.256C180.444 113.303 177.486 114.796 173.023 115.794C168.559 116.791 164.281 116.916 163.378 112.868Z" fill="#17C1D9"/>
<path d="M186.275 118.386C188.697 115.96 190.044 113.377 189.283 112.616C188.522 111.855 185.942 113.205 183.52 115.631C181.098 118.056 179.752 120.64 180.513 121.401C181.274 122.162 183.854 120.812 186.275 118.386Z" fill="#282828"/>
<path d="M165.212 122.18C165.973 121.419 164.626 118.836 162.205 116.41C159.783 113.984 157.203 112.635 156.442 113.396C155.681 114.157 157.028 116.74 159.449 119.166C161.871 121.592 164.451 122.941 165.212 122.18Z" fill="#282828"/>
<path d="M242.209 52.2423C241.838 40.7659 233.984 31.7072 224.668 32.009C203.935 32.624 203.428 70.6802 223.446 73.4139L223.022 76.786L229.205 76.5856L228.564 73.248C236.617 71.4666 242.545 62.6471 242.209 52.2423Z" fill="#045171"/>
<path d="M214.358 58.6053L212.022 58.681C211.107 54.3243 210.962 49.8407 211.594 45.4338L213.929 45.3582C213.067 49.9712 213.209 54.3869 214.358 58.6053Z" fill="white"/>
<path d="M229.508 73.1955L222.501 73.4226L222.551 74.9811L229.558 74.754L229.508 73.1955Z" fill="#3F3D56"/>
<path d="M209.156 132.872L208.45 132.542L225.798 73.6589L226.504 73.9898L209.156 132.872Z" fill="#3F3D56"/>
<path d="M256.567 61.947C260.803 51.2762 257.216 39.8328 248.554 36.3876C229.298 28.6676 213.657 63.3582 230.92 73.8624L229.187 76.7849L234.935 79.0713L235.679 75.7551C243.773 77.339 252.726 71.6213 256.567 61.947Z" fill="#17C1D9"/>
<path d="M228.493 56.6538L226.322 55.79C227.22 51.4297 228.875 47.2608 231.212 43.4728L233.384 44.3365C230.753 48.2215 229.123 52.3272 228.493 56.6538Z" fill="white"/>
<path d="M230.05 73.4928L229.475 74.9419L235.99 77.5332L236.565 76.0841L230.05 73.4928Z" fill="#3F3D56"/>
<path d="M209.019 131.322L208.342 130.936L232.561 75.6152L233.238 76.0006L209.019 131.322Z" fill="#3F3D56"/>
<path d="M124.921 52.9838C120.338 42.4577 109.695 36.9464 101.151 40.6739C82.1127 48.9169 95.6978 84.4647 115.307 79.598L116.159 82.8881L121.829 80.4144L120.001 77.5503C126.826 72.9155 129.077 62.527 124.921 52.9838Z" fill="#17C1D9"/>
<path d="M101.393 69.201L99.2513 70.1355C96.7914 66.4262 95.0007 62.3139 93.9604 57.9853L96.1027 57.0508C97.0049 61.6562 98.7685 65.7063 101.393 69.201Z" fill="white"/>
<path d="M120.859 77.1523L114.432 79.9558L115.055 81.3852L121.481 78.5817L120.859 77.1523Z" fill="#3F3D56"/>
<path d="M135.728 133.023C135.628 133.048 135.522 133.032 135.433 132.978C135.345 132.925 135.281 132.839 135.256 132.738L118.325 79.0418L119.081 78.8541L136.012 132.55C136.024 132.6 136.027 132.652 136.019 132.702C136.012 132.753 135.994 132.802 135.968 132.846C135.941 132.889 135.907 132.928 135.865 132.958C135.824 132.988 135.778 133.01 135.728 133.023Z" fill="#3F3D56"/>
<path d="M140.253 150H99.488C99.4191 150 99.3531 149.973 99.3044 149.924C99.2557 149.875 99.2283 149.809 99.2283 149.74C99.2283 149.671 99.2557 149.605 99.3044 149.556C99.3531 149.508 99.4191 149.48 99.488 149.48H140.253C140.322 149.48 140.388 149.508 140.437 149.556C140.485 149.605 140.513 149.671 140.513 149.74C140.513 149.809 140.485 149.875 140.437 149.924C140.388 149.973 140.322 150 140.253 150Z" fill="#CCCCCC"/>
<path d="M243.853 150H203.088C203.019 150 202.953 149.973 202.904 149.924C202.856 149.875 202.828 149.809 202.828 149.74C202.828 149.671 202.856 149.605 202.904 149.556C202.953 149.508 203.019 149.48 203.088 149.48H243.853C243.922 149.48 243.988 149.508 244.037 149.556C244.085 149.605 244.113 149.671 244.113 149.74C244.113 149.809 244.085 149.875 244.037 149.924C243.988 149.973 243.922 150 243.853 150Z" fill="#CCCCCC"/>
<path d="M195.299 139.345H154.534C154.465 139.345 154.399 139.317 154.35 139.269C154.301 139.22 154.274 139.154 154.274 139.085C154.274 139.016 154.301 138.95 154.35 138.901C154.399 138.852 154.465 138.825 154.534 138.825H195.299C195.367 138.825 195.433 138.852 195.482 138.901C195.531 138.95 195.558 139.016 195.558 139.085C195.558 139.154 195.531 139.22 195.482 139.269C195.433 139.317 195.367 139.345 195.299 139.345Z" fill="#CCCCCC"/>
<path d="M173.755 125.516C175.866 125.516 177.577 123.804 177.577 121.691C177.577 119.578 175.866 117.866 173.755 117.866C171.644 117.866 169.933 119.578 169.933 121.691C169.933 123.804 171.644 125.516 173.755 125.516Z" fill="white"/>
<path d="M173.755 122.966C174.458 122.966 175.029 122.395 175.029 121.691C175.029 120.987 174.458 120.416 173.755 120.416C173.051 120.416 172.481 120.987 172.481 121.691C172.481 122.395 173.051 122.966 173.755 122.966Z" fill="#3F3D56"/>
<path d="M176.789 128.766C176.907 129.415 176.762 130.084 176.387 130.627C176.012 131.169 175.437 131.54 174.789 131.659C174.14 131.777 173.471 131.632 172.929 131.257C172.387 130.881 172.016 130.306 171.898 129.657L171.897 129.652C171.653 128.3 172.697 127.822 174.048 127.577C175.399 127.332 176.544 127.414 176.789 128.766Z" fill="white"/>
</g>
<defs>
<clipPath id="clip0_270_360">
<rect width="166.346" height="150" fill="white" transform="translate(92)"/>
</clipPath>
</defs>
</svg>
