<svg width="500" height="500" viewBox="0 0 500 500" fill="none" xmlns="http://www.w3.org/2000/svg">
<rect width="500" height="500" rx="250" fill="#0C97AA"/>
<path d="M106.79 202.014H93.7963C91.7107 202.014 90.668 201.389 90.668 200.139C90.668 198.993 91.0958 197.821 91.9514 196.623C92.807 195.373 93.9032 194.227 95.24 193.186C96.6303 192.144 98.1544 191.259 99.8121 190.53C101.523 189.8 103.181 189.384 104.785 189.28L111.202 189.123C119.705 189.123 127.619 190.165 134.945 192.248C142.271 194.28 148.634 197.535 154.035 202.014C159.436 206.493 163.66 212.248 166.708 219.28C169.81 226.311 171.361 234.827 171.361 244.827C171.361 249.566 170.853 254.201 169.837 258.732C168.874 263.264 167.457 267.534 165.585 271.546C163.714 275.556 161.441 279.228 158.767 282.561C156.147 285.894 153.206 288.784 149.944 291.232C146.682 293.629 143.126 295.503 139.276 296.858C135.426 298.212 131.389 298.889 127.164 298.889C125.293 298.889 124.357 298.29 124.357 297.092C124.357 296.154 124.945 295.426 126.121 294.904C130.667 292.873 134.704 290.503 138.233 287.796C141.763 285.087 144.73 281.858 147.137 278.108C149.597 274.306 151.441 269.879 152.671 264.827C153.955 259.774 154.596 253.889 154.596 247.17C154.596 240.503 153.768 234.436 152.11 228.967C150.506 223.498 147.832 218.785 144.089 214.826C140.346 210.868 135.426 207.795 129.33 205.608C123.234 203.368 115.721 202.17 106.79 202.014ZM90.668 295.53V211.389C90.668 209.514 91.3097 208.264 92.5931 207.639C93.9299 207.014 95.9619 206.701 98.6891 206.701C101.684 206.701 103.769 207.014 104.946 207.639C106.175 208.212 106.79 209.462 106.79 211.389V282.873C106.79 285.009 107.887 286.077 110.079 286.077H123.394C125.694 286.077 126.843 286.728 126.843 288.03C126.843 288.811 126.014 289.827 124.357 291.077C122.753 292.327 120.747 293.524 118.341 294.67C115.935 295.816 113.207 296.806 110.159 297.639C107.111 298.472 104.331 298.889 101.817 298.889H93.9567C91.7642 298.889 90.668 297.769 90.668 295.53ZM213.311 301.311C208.819 301.311 204.942 300.738 201.68 299.592C198.473 298.498 195.852 296.676 193.82 294.123C191.788 291.519 190.291 288.16 189.328 284.046C188.365 279.931 187.884 274.852 187.884 268.811V226.389C187.884 224.982 188.258 223.681 189.007 222.483C189.809 221.233 190.772 220.165 191.895 219.28C193.071 218.394 194.328 217.717 195.665 217.248C197.055 216.727 198.338 216.467 199.515 216.467C201.386 216.467 202.323 217.587 202.323 219.826V267.404L202.643 273.42C202.857 276.389 203.284 278.941 203.927 281.077C204.568 283.16 205.531 284.879 206.814 286.232C208.097 287.534 209.701 288.498 211.627 289.123C213.605 289.748 215.985 290.061 218.766 290.061C223.204 290.061 227.241 289.046 230.878 287.013C231.893 286.441 232.561 286.154 232.883 286.154C233.365 286.154 233.685 286.337 233.845 286.701C234.059 287.066 234.167 287.847 234.167 289.046C234.167 291.232 233.391 293.108 231.84 294.67C230.289 296.18 228.418 297.431 226.226 298.42C224.033 299.41 221.733 300.139 219.327 300.608C216.974 301.077 214.968 301.311 213.311 301.311ZM252.695 219.826V289.827C252.695 292.639 251.358 294.982 248.684 296.858C246.064 298.732 243.524 299.67 241.065 299.67C239.193 299.67 238.257 298.55 238.257 296.311V226.311C238.257 223.602 239.593 221.285 242.267 219.358C244.941 217.431 247.481 216.467 249.888 216.467C251.759 216.467 252.695 217.587 252.695 219.826ZM272.587 296.311V188.733C272.587 185.92 273.898 183.576 276.518 181.701C279.191 179.826 281.758 178.889 284.218 178.889C286.089 178.889 287.026 180.009 287.026 182.248V289.827C287.026 292.691 285.715 295.061 283.095 296.936C280.474 298.759 277.908 299.67 275.394 299.67C273.524 299.67 272.587 298.55 272.587 296.311ZM331.463 293.967C329.163 297.769 326.65 299.67 323.922 299.67C322.639 299.67 321.329 298.707 319.992 296.78L292.4 257.482C291.491 256.129 291.036 255.034 291.036 254.201C291.036 252.899 291.758 251.467 293.202 249.904L316.864 224.201C319.11 221.753 321.142 220.269 322.961 219.748C324.778 219.227 327.826 218.941 332.104 218.889C333.762 218.889 334.591 219.54 334.591 220.842C334.591 221.78 333.815 223.003 332.265 224.513L308.442 248.498C307.158 249.852 306.516 250.998 306.516 251.936C306.516 252.717 306.971 253.68 307.881 254.827L331.302 286.077C332.265 287.482 332.746 288.759 332.746 289.904C332.746 291.207 332.318 292.561 331.463 293.967ZM379.509 216.467C384.001 216.467 388.038 217.04 391.621 218.186C395.204 219.332 398.225 221.181 400.685 223.733C403.145 226.232 405.016 229.488 406.299 233.498C407.636 237.457 408.305 242.248 408.305 247.873V290.217C408.305 291.519 407.877 292.743 407.022 293.889C406.22 295.034 405.203 296.05 403.973 296.936C402.797 297.769 401.514 298.42 400.123 298.889C398.786 299.41 397.61 299.67 396.594 299.67C394.723 299.67 393.786 298.55 393.786 296.311V250.764C393.786 235.399 387.53 227.717 375.017 227.717C367.744 227.717 361.14 229.67 355.205 233.577C352.853 235.087 351.328 235.842 350.633 235.842C349.831 235.842 349.43 235.426 349.43 234.592C349.43 233.133 350.258 231.414 351.916 229.436C359.188 220.79 368.387 216.467 379.509 216.467ZM387.691 294.513C385.445 296.493 382.664 298.108 379.348 299.358C376.033 300.66 372.852 301.311 369.803 301.311C362.692 301.311 357.237 299.488 353.44 295.842C349.697 292.144 347.825 287.613 347.825 282.248C347.825 278.394 349.19 275.451 351.916 273.42C354.377 271.546 356.516 270.608 358.333 270.608C358.922 270.608 359.429 270.816 359.857 271.232C360.285 271.649 360.499 272.274 360.499 273.108C360.499 279.046 361.542 283.368 363.627 286.077C365.713 288.732 369.429 290.061 374.776 290.061C376.381 290.061 378.333 289.8 380.632 289.28C382.932 288.707 384.884 287.951 386.487 287.013C387.45 286.441 388.172 286.154 388.653 286.154C389.402 286.154 389.776 287.118 389.776 289.046C389.776 291.441 389.082 293.264 387.691 294.513ZM387.049 252.327C388.065 252.847 388.76 253.55 389.134 254.436C389.508 255.269 389.696 256.858 389.696 259.201C389.696 261.284 389.508 262.796 389.134 263.732C388.814 264.618 388.199 265.061 387.289 265.061C386.702 265.061 385.873 264.827 384.804 264.358C379.776 262.222 375.231 261.154 371.167 261.154C364.59 261.154 358.333 263.472 352.397 268.108C350.527 269.566 349.269 270.296 348.628 270.296C347.773 270.296 347.345 269.827 347.345 268.889C347.345 267.431 347.879 265.842 348.949 264.123C351.783 259.488 355.499 255.972 360.098 253.577C364.75 251.129 369.911 249.904 375.579 249.904C379.91 249.904 383.734 250.712 387.049 252.327Z" fill="white"/>
<path d="M253.399 207.222C253.399 213.666 249.568 202.222 244.843 202.222C240.118 202.222 236.287 213.666 236.287 207.222C236.287 200.779 240.118 195.556 244.843 195.556C249.568 195.556 253.399 200.779 253.399 207.222Z" fill="white"/>
<path d="M204.345 207.222C204.345 213.666 200.515 202.222 195.79 202.222C191.064 202.222 187.234 213.666 187.234 207.222C187.234 200.779 191.064 195.556 195.79 195.556C200.515 195.556 204.345 200.779 204.345 207.222Z" fill="white"/>
<path d="M286.882 173.91L285.718 171.014C285.508 170.492 284.757 170.437 284.466 170.923L283.977 171.744C283.89 171.889 283.681 171.916 283.557 171.797C283.39 171.638 283.105 171.749 283.103 171.975L281.728 300.214C281.724 300.582 282.036 300.885 282.422 300.885H283.678C283.761 300.885 283.843 300.869 283.922 300.841L286.132 300.049C286.402 299.952 286.582 299.706 286.582 299.429L286.928 174.15C286.928 174.068 286.913 173.986 286.882 173.91Z" fill="#F7B14C"/>
<path d="M273.388 171.716L271.998 300.217L273.388 300.552L274.776 169.708L273.388 171.716Z" fill="#F7F7EB"/>
<path d="M274.429 170.377L273.388 300.881L275.818 301.216L277.207 175.354L275.818 170.043L274.776 169.708L274.429 170.377Z" fill="#F7DF8B"/>
<path d="M277.194 173.13L276.901 175.364C276.875 175.567 276.948 175.771 277.1 175.916L277.349 176.154C277.48 176.279 277.553 176.45 277.552 176.627L276.863 300.217C276.862 300.584 277.173 300.884 277.557 300.884H281.033C281.413 300.884 281.724 300.591 281.727 300.227L283.107 172.173C283.108 172.081 283.089 171.989 283.051 171.904L282.181 169.961C282.108 169.799 281.971 169.672 281.8 169.606L280.539 169.124C280.405 169.072 280.255 169.062 280.114 169.096L279.267 169.298C279.062 169.348 278.891 169.484 278.804 169.668L277.251 172.937C277.221 172.998 277.203 173.063 277.194 173.13Z" fill="#F7D14C"/>
<path d="M272.346 174.358L271.654 300.051C271.653 300.328 271.887 300.552 272.175 300.552C272.461 300.552 272.694 300.331 272.695 300.057L273.388 174.026L272.346 174.358Z" fill="#D19146"/>
<path d="M277.554 175.686H276.513L275.821 300.716C275.819 300.991 276.053 301.216 276.341 301.216C276.628 301.216 276.861 300.994 276.863 300.721L277.554 175.686Z" fill="#D19146"/>
<path d="M286.581 174.026V299.666C286.581 299.902 286.832 300.062 287.06 299.974C287.19 299.921 287.276 299.8 287.276 299.666V174.026H286.581Z" fill="#D19146"/>
<path d="M276.049 300.85L272.296 299.744C271.976 299.651 271.652 299.88 271.652 300.201C271.652 300.409 271.794 300.593 272.003 300.655L276.049 301.847C276.126 301.869 276.206 301.879 276.286 301.876L283.656 301.554C283.753 301.55 283.849 301.527 283.936 301.486L287.092 299.975C287.205 299.921 287.276 299.812 287.276 299.692C287.276 299.468 287.039 299.314 286.821 299.398L283.913 300.51C283.84 300.538 283.763 300.554 283.686 300.558L276.286 300.879C276.206 300.882 276.126 300.872 276.049 300.85Z" fill="#D19146"/>
<path d="M283.803 217.197V300.778C283.803 300.998 284.023 301.157 284.245 301.098C284.394 301.057 284.498 300.926 284.498 300.778V217.197C284.498 217.014 284.343 216.865 284.151 216.865C283.96 216.865 283.803 217.014 283.803 217.197Z" fill="#D19146"/>
<path d="M277.901 155.428L276.525 159.706C276.516 159.732 276.513 159.759 276.513 159.787C276.513 160.024 276.808 160.148 276.991 159.987L280.802 156.622C280.945 156.496 281.026 156.319 281.026 156.134V155.528C281.026 155.462 281.015 155.396 280.995 155.333L279.637 151.111L277.901 155.428Z" fill="#575656"/>
<path d="M278.596 158.749L277.208 170.373L278.249 170.04L278.943 169.376L280.332 169.044L282.068 169.376L282.762 170.373L283.804 170.705L280.332 156.425L278.596 158.749Z" fill="#F5E8C3"/>
<path d="M283.803 171.037L280.331 156.425L280.679 156.093L285.54 169.708L283.803 171.037Z" fill="#E9CC9C"/>
<path d="M277.207 160.078L274.082 169.044L277.207 170.372L278.596 158.749L277.207 160.078Z" fill="#F7F1D8"/>
<path d="M272.686 171.105L272.345 174.358L272.52 174.524C272.616 174.615 272.771 174.615 272.867 174.524L272.939 174.455C272.994 174.401 273.086 174.401 273.142 174.455C273.233 174.542 273.387 174.48 273.387 174.358V171.922C273.387 171.779 273.436 171.639 273.526 171.524L274.392 170.42C274.416 170.389 274.439 170.355 274.457 170.319L274.507 170.224C274.661 169.928 275.019 169.786 275.348 169.891L275.396 169.906C275.654 169.988 275.837 170.205 275.867 170.463L276.475 175.703C276.49 175.83 276.652 175.884 276.746 175.794C276.809 175.734 276.91 175.734 276.972 175.794L277.157 175.971C277.189 176.001 277.231 176.018 277.276 176.018C277.34 176.018 277.398 175.984 277.426 175.929L277.554 175.686L277.231 173.216C277.215 173.094 277.235 172.97 277.287 172.858L278.803 169.668C278.891 169.484 279.062 169.348 279.268 169.299L280.113 169.096C280.256 169.062 280.404 169.072 280.54 169.124L281.8 169.606C281.971 169.672 282.108 169.799 282.18 169.961L283.053 171.908C283.089 171.99 283.109 172.079 283.109 172.169V172.354C283.109 172.564 283.233 172.757 283.429 172.85L283.473 172.871C283.67 172.965 283.908 172.928 284.065 172.779C284.122 172.725 284.164 172.66 284.189 172.587L284.482 171.745C284.698 171.126 285.621 171.145 285.809 171.773L286.496 174.073C286.534 174.201 286.701 174.242 286.799 174.149L286.841 174.109C286.889 174.063 286.967 174.063 287.015 174.109C287.063 174.154 287.14 174.154 287.188 174.109L287.275 174.026L281.026 155.428L280.679 156.093L284.781 167.864C284.823 167.984 284.828 168.113 284.796 168.236L284.498 169.376L284.294 169.96C284.105 170.504 283.33 170.577 283.032 170.079L282.546 169.264C282.462 169.123 282.325 169.016 282.163 168.964L281.48 168.746C281.409 168.724 281.335 168.712 281.261 168.712H280.07C280.013 168.712 279.957 168.719 279.901 168.732L278.823 168.99C278.676 169.025 278.544 169.106 278.449 169.219L277.885 169.894C277.568 170.273 276.947 170.21 276.721 169.776L276.64 169.622C276.558 169.465 276.415 169.345 276.239 169.289L275.659 169.104C275.536 169.065 275.404 169.06 275.277 169.09C274.756 169.215 274.295 168.743 274.459 168.254L277.155 160.231C277.189 160.13 277.247 160.039 277.325 159.964L278.248 159.081L278.555 158.788C278.582 158.762 278.606 158.734 278.629 158.705L279.464 157.587L280.331 156.425L277.991 158.983C277.932 159.048 277.86 159.101 277.779 159.14L277.353 159.343C277.256 159.39 277.15 159.414 277.043 159.414H277.021C276.718 159.414 276.45 159.602 276.36 159.879L272.715 170.972C272.7 171.015 272.691 171.059 272.686 171.105Z" fill="#DBBD8D"/>
</svg>
