<svg width="500" height="234" viewBox="0 0 500 234" fill="none" xmlns="http://www.w3.org/2000/svg">
<rect width="500" height="234" rx="10" fill="#0C97AA"/>
<path d="M106.79 89.0139H93.7963C91.7107 89.0139 90.668 88.3889 90.668 87.1389C90.668 85.9931 91.0958 84.8212 91.9514 83.6232C92.807 82.3732 93.9032 81.2275 95.24 80.1858C96.6303 79.1441 98.1544 78.2587 99.8121 77.5296C101.523 76.8004 103.181 76.3837 104.785 76.2796L111.202 76.1232C119.705 76.1232 127.619 77.1649 134.945 79.2482C142.271 81.2796 148.634 84.5347 154.035 89.0139C159.436 93.4931 163.66 99.2482 166.708 106.28C169.81 113.311 171.361 121.827 171.361 131.827C171.361 136.566 170.853 141.201 169.837 145.732C168.874 150.264 167.457 154.534 165.585 158.546C163.714 162.556 161.441 166.228 158.767 169.561C156.147 172.894 153.206 175.784 149.944 178.232C146.682 180.629 143.126 182.503 139.276 183.858C135.426 185.212 131.389 185.889 127.164 185.889C125.293 185.889 124.357 185.29 124.357 184.092C124.357 183.154 124.945 182.426 126.121 181.904C130.667 179.873 134.704 177.503 138.233 174.796C141.763 172.087 144.73 168.858 147.137 165.108C149.597 161.306 151.441 156.879 152.671 151.827C153.955 146.774 154.596 140.889 154.596 134.17C154.596 127.503 153.768 121.436 152.11 115.967C150.506 110.498 147.832 105.785 144.089 101.826C140.346 97.868 135.426 94.7951 129.33 92.6077C123.234 90.368 115.721 89.1701 106.79 89.0139ZM90.668 182.53V98.3889C90.668 96.5139 91.3097 95.2639 92.5931 94.6389C93.9299 94.0139 95.9619 93.7013 98.6891 93.7013C101.684 93.7013 103.769 94.0139 104.946 94.6389C106.175 95.2118 106.79 96.4618 106.79 98.3889V169.873C106.79 172.009 107.887 173.077 110.079 173.077H123.394C125.694 173.077 126.843 173.728 126.843 175.03C126.843 175.811 126.014 176.827 124.357 178.077C122.753 179.327 120.747 180.524 118.341 181.67C115.935 182.816 113.207 183.806 110.159 184.639C107.111 185.472 104.331 185.889 101.817 185.889H93.9567C91.7642 185.889 90.668 184.769 90.668 182.53ZM213.311 188.311C208.819 188.311 204.942 187.738 201.68 186.592C198.473 185.498 195.852 183.676 193.82 181.123C191.788 178.519 190.291 175.16 189.328 171.046C188.365 166.931 187.884 161.852 187.884 155.811V113.389C187.884 111.982 188.258 110.681 189.007 109.483C189.809 108.233 190.772 107.165 191.895 106.28C193.071 105.394 194.328 104.717 195.665 104.248C197.055 103.727 198.338 103.467 199.515 103.467C201.386 103.467 202.323 104.587 202.323 106.826V154.404L202.643 160.42C202.857 163.389 203.284 165.941 203.927 168.077C204.568 170.16 205.531 171.879 206.814 173.232C208.097 174.534 209.701 175.498 211.627 176.123C213.605 176.748 215.985 177.061 218.766 177.061C223.204 177.061 227.241 176.046 230.878 174.013C231.893 173.441 232.561 173.154 232.883 173.154C233.365 173.154 233.685 173.337 233.845 173.701C234.059 174.066 234.167 174.847 234.167 176.046C234.167 178.232 233.391 180.108 231.84 181.67C230.289 183.18 228.418 184.431 226.226 185.42C224.033 186.41 221.733 187.139 219.327 187.608C216.974 188.077 214.968 188.311 213.311 188.311ZM252.695 106.826V176.827C252.695 179.639 251.358 181.982 248.684 183.858C246.064 185.732 243.524 186.67 241.065 186.67C239.193 186.67 238.257 185.55 238.257 183.311V113.311C238.257 110.602 239.593 108.285 242.267 106.358C244.941 104.431 247.481 103.467 249.888 103.467C251.759 103.467 252.695 104.587 252.695 106.826ZM272.587 183.311V75.7327C272.587 72.9201 273.898 70.5765 276.518 68.7014C279.191 66.8265 281.758 65.8889 284.218 65.8889C286.089 65.8889 287.026 67.0087 287.026 69.2482V176.827C287.026 179.691 285.715 182.061 283.095 183.936C280.474 185.759 277.908 186.67 275.394 186.67C273.524 186.67 272.587 185.55 272.587 183.311ZM331.463 180.967C329.163 184.769 326.65 186.67 323.922 186.67C322.639 186.67 321.329 185.707 319.992 183.78L292.4 144.482C291.491 143.129 291.036 142.034 291.036 141.201C291.036 139.899 291.758 138.467 293.202 136.904L316.864 111.201C319.11 108.753 321.142 107.269 322.961 106.748C324.778 106.227 327.826 105.941 332.104 105.889C333.762 105.889 334.591 106.54 334.591 107.842C334.591 108.78 333.815 110.003 332.265 111.513L308.442 135.498C307.158 136.852 306.516 137.998 306.516 138.936C306.516 139.717 306.971 140.68 307.881 141.827L331.302 173.077C332.265 174.482 332.746 175.759 332.746 176.904C332.746 178.207 332.318 179.561 331.463 180.967ZM379.509 103.467C384.001 103.467 388.038 104.04 391.621 105.186C395.204 106.332 398.225 108.181 400.685 110.733C403.145 113.232 405.016 116.488 406.299 120.498C407.636 124.457 408.305 129.248 408.305 134.873V177.217C408.305 178.519 407.877 179.743 407.022 180.889C406.22 182.034 405.203 183.05 403.973 183.936C402.797 184.769 401.514 185.42 400.123 185.889C398.786 186.41 397.61 186.67 396.594 186.67C394.723 186.67 393.786 185.55 393.786 183.311V137.764C393.786 122.399 387.53 114.717 375.017 114.717C367.744 114.717 361.14 116.67 355.205 120.577C352.853 122.087 351.328 122.842 350.633 122.842C349.831 122.842 349.43 122.426 349.43 121.592C349.43 120.133 350.258 118.414 351.916 116.436C359.188 107.79 368.387 103.467 379.509 103.467ZM387.691 181.513C385.445 183.493 382.664 185.108 379.348 186.358C376.033 187.66 372.852 188.311 369.803 188.311C362.692 188.311 357.237 186.488 353.44 182.842C349.697 179.144 347.825 174.613 347.825 169.248C347.825 165.394 349.19 162.451 351.916 160.42C354.377 158.546 356.516 157.608 358.333 157.608C358.922 157.608 359.429 157.816 359.857 158.232C360.285 158.649 360.499 159.274 360.499 160.108C360.499 166.046 361.542 170.368 363.627 173.077C365.713 175.732 369.429 177.061 374.776 177.061C376.381 177.061 378.333 176.8 380.632 176.28C382.932 175.707 384.884 174.951 386.487 174.013C387.45 173.441 388.172 173.154 388.653 173.154C389.402 173.154 389.776 174.118 389.776 176.046C389.776 178.441 389.082 180.264 387.691 181.513ZM387.049 139.327C388.065 139.847 388.76 140.55 389.134 141.436C389.508 142.269 389.696 143.858 389.696 146.201C389.696 148.284 389.508 149.796 389.134 150.732C388.814 151.618 388.199 152.061 387.289 152.061C386.702 152.061 385.873 151.827 384.804 151.358C379.776 149.222 375.231 148.154 371.167 148.154C364.59 148.154 358.333 150.472 352.397 155.108C350.527 156.566 349.269 157.296 348.628 157.296C347.773 157.296 347.345 156.827 347.345 155.889C347.345 154.431 347.879 152.842 348.949 151.123C351.783 146.488 355.499 142.972 360.098 140.577C364.75 138.129 369.911 136.904 375.579 136.904C379.91 136.904 383.734 137.712 387.049 139.327Z" fill="white"/>
<path d="M253.399 94.2223C253.399 100.666 249.569 89.2223 244.843 89.2223C240.118 89.2223 236.288 100.666 236.288 94.2223C236.288 87.779 240.118 82.5557 244.843 82.5557C249.569 82.5557 253.399 87.779 253.399 94.2223Z" fill="white"/>
<path d="M204.345 94.2223C204.345 100.666 200.514 89.2223 195.789 89.2223C191.064 89.2223 187.233 100.666 187.233 94.2223C187.233 87.779 191.064 82.5557 195.789 82.5557C200.514 82.5557 204.345 87.779 204.345 94.2223Z" fill="white"/>
<path d="M286.883 60.9096L285.718 58.0145C285.508 57.4918 284.757 57.4372 284.466 57.9233L283.977 58.7436C283.89 58.8894 283.682 58.9161 283.557 58.7973C283.391 58.6378 283.105 58.7492 283.103 58.9747L281.729 187.214C281.724 187.583 282.037 187.885 282.422 187.885H283.678C283.761 187.885 283.844 187.869 283.922 187.841L286.132 187.049C286.402 186.953 286.583 186.706 286.583 186.429L286.928 61.1498C286.928 61.0677 286.913 60.9863 286.883 60.9096Z" fill="#F7B14C"/>
<path d="M273.388 58.716L271.999 187.217L273.388 187.552L274.776 56.7083L273.388 58.716Z" fill="#F7F7EB"/>
<path d="M274.43 57.3775L273.388 187.881L275.818 188.216L277.207 62.3538L275.818 57.0429L274.776 56.7083L274.43 57.3775Z" fill="#F7DF8B"/>
<path d="M277.194 60.1296L276.902 62.3636C276.875 62.5671 276.948 62.7707 277.1 62.9156L277.349 63.1542C277.48 63.2795 277.553 63.4499 277.552 63.6273L276.863 187.217C276.862 187.585 277.173 187.885 277.558 187.885H281.034C281.413 187.885 281.724 187.591 281.727 187.227L283.107 59.1728C283.109 59.0806 283.089 58.9892 283.052 58.9044L282.181 56.9612C282.108 56.7993 281.971 56.6716 281.8 56.6062L280.54 56.1239C280.405 56.072 280.255 56.0624 280.114 56.0963L279.268 56.2985C279.062 56.3476 278.891 56.4836 278.804 56.668L277.251 59.9372C277.221 59.9983 277.203 60.0632 277.194 60.1296Z" fill="#F7D14C"/>
<path d="M272.346 61.3576L271.654 187.051C271.653 187.328 271.887 187.552 272.175 187.552C272.461 187.552 272.694 187.331 272.695 187.057L273.388 61.0255L272.346 61.3576Z" fill="#D19146"/>
<path d="M277.554 62.6858H276.513L275.821 187.716C275.819 187.991 276.053 188.216 276.341 188.216C276.628 188.216 276.861 187.995 276.863 187.721L277.554 62.6858Z" fill="#D19146"/>
<path d="M286.581 61.0255V186.666C286.581 186.902 286.832 187.062 287.06 186.974C287.19 186.921 287.276 186.8 287.276 186.666V61.0255H286.581Z" fill="#D19146"/>
<path d="M276.05 187.85L272.296 186.744C271.976 186.651 271.652 186.88 271.652 187.201C271.652 187.409 271.794 187.593 272.003 187.656L276.05 188.847C276.126 188.869 276.206 188.879 276.286 188.876L283.656 188.554C283.753 188.55 283.849 188.527 283.936 188.486L287.092 186.976C287.205 186.921 287.276 186.812 287.276 186.692C287.276 186.468 287.039 186.314 286.821 186.398L283.913 187.51C283.84 187.538 283.764 187.554 283.686 187.558L276.286 187.879C276.206 187.882 276.126 187.872 276.05 187.85Z" fill="#D19146"/>
<path d="M283.803 104.197V187.778C283.803 187.998 284.023 188.157 284.245 188.098C284.394 188.057 284.498 187.926 284.498 187.778V104.197C284.498 104.014 284.343 103.865 284.151 103.865C283.96 103.865 283.803 104.014 283.803 104.197Z" fill="#D19146"/>
<path d="M277.901 42.4284L276.525 46.7064C276.516 46.7323 276.513 46.7594 276.513 46.7867C276.513 47.0244 276.808 47.1484 276.991 46.9871L280.802 43.6219C280.945 43.4962 281.026 43.3192 281.026 43.1339V42.5282C281.026 42.4621 281.015 42.3962 280.995 42.333L279.637 38.1112L277.901 42.4284Z" fill="#575656"/>
<path d="M278.596 45.7494L277.208 57.3726L278.25 57.0405L278.943 56.3762L280.333 56.0441L282.068 56.3762L282.762 57.3726L283.804 57.7046L280.333 43.4247L278.596 45.7494Z" fill="#F5E8C3"/>
<path d="M283.804 58.0365L280.331 43.4245L280.679 43.0925L285.54 56.7082L283.804 58.0365Z" fill="#E9CC9C"/>
<path d="M277.207 47.0777L274.082 56.0442L277.207 57.3725L278.596 45.7494L277.207 47.0777Z" fill="#F7F1D8"/>
<path d="M272.687 58.1047L272.346 61.3577L272.52 61.5237C272.616 61.6154 272.771 61.6154 272.867 61.5237L272.939 61.4549C272.995 61.4013 273.086 61.4013 273.142 61.4549C273.233 61.5416 273.387 61.4801 273.387 61.3577V58.9223C273.387 58.7786 273.436 58.6387 273.526 58.5238L274.392 57.4205C274.416 57.3886 274.439 57.3546 274.457 57.3189L274.507 57.2236C274.661 56.9279 275.02 56.786 275.348 56.8906L275.396 56.9061C275.654 56.988 275.838 57.2054 275.867 57.4628L276.475 62.7028C276.49 62.8299 276.652 62.8843 276.747 62.7938C276.81 62.7343 276.91 62.7343 276.973 62.7938L277.158 62.971C277.189 63.0012 277.232 63.0182 277.276 63.0182C277.34 63.0182 277.398 62.9837 277.427 62.9292L277.555 62.686L277.232 60.2156C277.216 60.0938 277.235 59.9701 277.288 59.8584L278.804 56.668C278.892 56.4837 279.063 56.3477 279.268 56.2986L280.113 56.0963C280.256 56.0624 280.404 56.0721 280.54 56.1239L281.801 56.6063C281.972 56.6717 282.109 56.7993 282.18 56.9613L283.053 58.9077C283.09 58.9904 283.109 59.0794 283.109 59.1694V59.3544C283.109 59.5645 283.233 59.7566 283.43 59.8505L283.473 59.871C283.67 59.9655 283.909 59.9285 284.065 59.7791C284.122 59.7253 284.164 59.6596 284.189 59.5873L284.482 58.7451C284.698 58.1256 285.621 58.1448 285.809 58.7727L286.496 61.0734C286.535 61.2009 286.701 61.2424 286.799 61.1486L286.842 61.1086C286.89 61.0627 286.967 61.0627 287.015 61.1086C287.063 61.1544 287.141 61.1544 287.188 61.1086L287.275 61.0256L281.026 42.4285L280.679 43.0927L284.781 54.8644C284.824 54.9843 284.828 55.113 284.796 55.2356L284.498 56.3763L284.294 56.9596C284.105 57.5043 283.33 57.5775 283.033 57.079L282.547 56.2645C282.462 56.1226 282.325 56.0156 282.163 55.9639L281.48 55.7461C281.409 55.7236 281.335 55.7121 281.261 55.7121H280.07C280.013 55.7121 279.957 55.7187 279.901 55.7319L278.823 55.9898C278.676 56.025 278.545 56.1057 278.449 56.2193L277.885 56.894C277.568 57.2726 276.948 57.2097 276.722 56.7761L276.641 56.6224C276.559 56.4648 276.415 56.345 276.239 56.2893L275.66 56.1045C275.536 56.0651 275.404 56.0603 275.278 56.0905C274.756 56.2151 274.295 55.7435 274.46 55.2544L277.155 47.2306C277.189 47.1301 277.248 47.0388 277.325 46.9642L278.248 46.0815L278.555 45.7882C278.582 45.7624 278.606 45.7345 278.629 45.7047L279.464 44.587L280.331 43.4247L277.991 45.9831C277.932 46.048 277.86 46.1014 277.779 46.1398L277.354 46.3435C277.257 46.3896 277.151 46.4136 277.043 46.4136H277.022C276.718 46.4136 276.45 46.6018 276.36 46.8786L272.715 57.9716C272.7 58.0149 272.691 58.0595 272.687 58.1047Z" fill="#DBBD8D"/>
</svg>
