<svg width="88" height="60" viewBox="0 0 88 60" fill="none" xmlns="http://www.w3.org/2000/svg">
<path d="M6.88992 22.8031H3.54855C3.01225 22.8031 2.74413 22.6424 2.74413 22.321C2.74413 22.0263 2.85413 21.725 3.07415 21.4169C3.29416 21.0955 3.57603 20.8009 3.9198 20.533C4.2773 20.2652 4.66921 20.0375 5.09547 19.85C5.53549 19.6625 5.96174 19.5553 6.37427 19.5286L8.02434 19.4884C10.2107 19.4884 12.2457 19.7562 14.1296 20.2919C16.0134 20.8143 17.6497 21.6513 19.0385 22.8031C20.4273 23.9549 21.5136 25.4348 22.2974 27.2429C23.0949 29.051 23.4937 31.2407 23.4937 33.8121C23.4937 35.0307 23.363 36.2227 23.1018 37.3878C22.8542 38.5532 22.4899 39.6513 22.0086 40.6827C21.5273 41.7138 20.9429 42.6581 20.2554 43.5152C19.5816 44.3724 18.8254 45.1155 17.9866 45.745C17.1478 46.3612 16.2334 46.8432 15.2433 47.1915C14.2533 47.5398 13.2152 47.7138 12.1289 47.7138C11.6476 47.7138 11.407 47.5598 11.407 47.2518C11.407 47.0107 11.5582 46.8232 11.8607 46.6892C13.0295 46.167 14.0677 45.5575 14.9752 44.8612C15.8827 44.1647 16.6459 43.3344 17.2647 42.3701C17.8972 41.3924 18.3716 40.2541 18.6878 38.955C19.0179 37.6558 19.1829 36.1424 19.1829 34.4147C19.1829 32.7004 18.9698 31.1401 18.5435 29.7338C18.131 28.3277 17.4434 27.1156 16.4809 26.0978C15.5183 25.0799 14.2533 24.2897 12.6858 23.7272C11.1182 23.1513 9.18624 22.8433 6.88992 22.8031ZM2.74413 46.8501V25.2138C2.74413 24.7317 2.90913 24.4103 3.23916 24.2495C3.5829 24.0888 4.10543 24.0085 4.8067 24.0085C5.57673 24.0085 6.11299 24.0888 6.41552 24.2495C6.73177 24.3969 6.88992 24.7183 6.88992 25.2138V43.5955C6.88992 44.1447 7.17179 44.4192 7.73557 44.4192H11.1595C11.7507 44.4192 12.0464 44.5867 12.0464 44.9215C12.0464 45.1224 11.8332 45.3835 11.407 45.705C10.9945 46.0264 10.4788 46.3344 9.86003 46.629C9.24125 46.9235 8.53998 47.1781 7.75619 47.3924C6.9724 47.6067 6.25738 47.7138 5.61111 47.7138H3.58979C3.02601 47.7138 2.74413 47.4258 2.74413 46.8501ZM34.2808 48.3367C33.1259 48.3367 32.1289 48.1892 31.2902 47.8947C30.4653 47.6132 29.7915 47.1447 29.2689 46.4884C28.7464 45.8187 28.3613 44.955 28.1138 43.897C27.8663 42.839 27.7426 41.533 27.7426 39.9795V29.071C27.7426 28.7093 27.8388 28.3745 28.0313 28.0665C28.2376 27.7451 28.4851 27.4705 28.7738 27.2429C29.0764 27.0152 29.3996 26.8411 29.7434 26.7205C30.1007 26.5866 30.4307 26.5196 30.7334 26.5196C31.2145 26.5196 31.4553 26.8076 31.4553 27.3835V39.6178L31.5378 41.1647C31.5926 41.9281 31.7026 42.5844 31.8678 43.1335C32.0326 43.6692 32.2802 44.1112 32.6102 44.4592C32.9403 44.7941 33.3527 45.0418 33.8479 45.2027C34.3565 45.3632 34.9684 45.4438 35.6836 45.4438C36.8247 45.4438 37.8629 45.1827 38.798 44.6601C39.0591 44.513 39.231 44.4392 39.3137 44.4392C39.4375 44.4392 39.52 44.4861 39.561 44.5798C39.6162 44.6735 39.6438 44.8744 39.6438 45.1827C39.6438 45.745 39.4443 46.2272 39.0456 46.629C38.6467 47.0172 38.1656 47.339 37.6018 47.5932C37.038 47.8478 36.4466 48.0352 35.8279 48.1558C35.2228 48.2764 34.7071 48.3367 34.2808 48.3367ZM44.4083 27.3835V45.3835C44.4083 46.1067 44.0645 46.7092 43.3769 47.1915C42.703 47.6735 42.0501 47.9147 41.4176 47.9147C40.9362 47.9147 40.6957 47.6267 40.6957 47.051V29.051C40.6957 28.3545 41.0392 27.7585 41.7268 27.2629C42.4144 26.7674 43.0674 26.5196 43.6863 26.5196C44.1674 26.5196 44.4083 26.8076 44.4083 27.3835ZM49.5233 47.051V19.3879C49.5233 18.6647 49.8604 18.0621 50.5342 17.5799C51.2215 17.0978 51.8815 16.8567 52.5142 16.8567C52.9953 16.8567 53.2362 17.1446 53.2362 17.7205V45.3835C53.2362 46.1201 52.8991 46.7295 52.2253 47.2115C51.5515 47.6804 50.8915 47.9147 50.2452 47.9147C49.7641 47.9147 49.5233 47.6267 49.5233 47.051ZM64.6628 46.4481C64.0714 47.4258 63.4252 47.9147 62.7238 47.9147C62.3938 47.9147 62.057 47.667 61.7132 47.1715L54.6181 37.0664C54.3843 36.7184 54.2673 36.437 54.2673 36.2227C54.2673 35.8878 54.453 35.5195 54.8243 35.1178L60.9089 28.5085C61.4865 27.879 62.0089 27.4973 62.4765 27.3634C62.9438 27.2295 63.7276 27.1558 64.8277 27.1424C65.2539 27.1424 65.4672 27.3098 65.4672 27.6446C65.4672 27.8857 65.2677 28.2004 64.869 28.5887L58.7431 34.7561C58.4131 35.1044 58.248 35.399 58.248 35.6401C58.248 35.841 58.365 36.0887 58.5988 36.3835L64.6214 44.4192C64.869 44.7807 64.9928 45.109 64.9928 45.4035C64.9928 45.7384 64.8828 46.0867 64.6628 46.4481ZM77.0176 26.5196C78.1725 26.5196 79.2106 26.6669 80.132 26.9616C81.0534 27.2562 81.8302 27.7317 82.4627 28.3879C83.0954 29.0307 83.5765 29.8678 83.9065 30.899C84.2503 31.917 84.4222 33.149 84.4222 34.5955V45.4838C84.4222 45.8187 84.3122 46.1335 84.0922 46.4281C83.886 46.7227 83.6246 46.9838 83.3084 47.2115C83.0059 47.4258 82.6759 47.5932 82.3183 47.7138C81.9745 47.8478 81.6721 47.9147 81.4107 47.9147C80.9296 47.9147 80.6888 47.6267 80.6888 47.051V35.339C80.6888 31.3878 79.0801 29.4124 75.8624 29.4124C73.9923 29.4124 72.2942 29.9147 70.7679 30.9193C70.163 31.3075 69.7711 31.5018 69.5922 31.5018C69.3859 31.5018 69.283 31.3947 69.283 31.1804C69.283 30.8053 69.4959 30.3633 69.9222 29.8544C71.7923 27.6312 74.1575 26.5196 77.0176 26.5196ZM79.1215 46.5887C78.5439 47.0978 77.8287 47.513 76.9762 47.8344C76.1238 48.1692 75.3056 48.3367 74.5218 48.3367C72.6931 48.3367 71.2903 47.8678 70.3141 46.9304C69.3516 45.9795 68.8702 44.8144 68.8702 43.4347C68.8702 42.4438 69.2211 41.687 69.9222 41.1647C70.5549 40.6827 71.1049 40.4415 71.5722 40.4415C71.7236 40.4415 71.8541 40.495 71.9642 40.6021C72.0742 40.7092 72.1293 40.8701 72.1293 41.0844C72.1293 42.6112 72.3974 43.7227 72.9337 44.4192C73.4699 45.1021 74.4256 45.4438 75.8005 45.4438C76.2132 45.4438 76.7152 45.3767 77.3063 45.243C77.8976 45.0955 78.3995 44.9012 78.812 44.6601C79.0596 44.513 79.2453 44.4392 79.3688 44.4392C79.5615 44.4392 79.6577 44.687 79.6577 45.1827C79.6577 45.7987 79.479 46.2675 79.1215 46.5887ZM78.9563 35.7407C79.2177 35.8744 79.3963 36.0553 79.4925 36.283C79.5888 36.4973 79.6372 36.9058 79.6372 37.5084C79.6372 38.0441 79.5888 38.4327 79.4925 38.6735C79.4101 38.9012 79.252 39.0152 79.0182 39.0152C78.8671 39.0152 78.6539 38.955 78.379 38.8344C77.0862 38.2852 75.9176 38.0107 74.8724 38.0107C73.1812 38.0107 71.5723 38.6067 70.046 39.7987C69.5649 40.1735 69.2416 40.3613 69.0768 40.3613C68.8568 40.3613 68.7468 40.2407 68.7468 39.9995C68.7468 39.6247 68.884 39.2161 69.1592 38.7741C69.8879 37.5821 70.8436 36.6781 72.0261 36.0621C73.2223 35.4327 74.5494 35.1178 76.007 35.1178C77.1206 35.1178 78.1039 35.3255 78.9563 35.7407Z" fill="white"/>
<path d="M44.5883 24.1438C44.5883 25.8007 43.6032 22.8581 42.3882 22.8581C41.1731 22.8581 40.1881 25.8007 40.1881 24.1438C40.1881 22.4869 41.1731 21.1438 42.3882 21.1438C43.6032 21.1438 44.5883 22.4869 44.5883 24.1438Z" fill="white"/>
<path d="M31.9735 24.1438C31.9735 25.8007 30.9884 22.8581 29.7734 22.8581C28.5583 22.8581 27.5733 25.8007 27.5733 24.1438C27.5733 22.4869 28.5583 21.1438 29.7734 21.1438C30.9884 21.1438 31.9735 22.4869 31.9735 24.1438Z" fill="white"/>
<path d="M53.1979 15.5769L52.8984 14.8324C52.8444 14.698 52.6514 14.684 52.5766 14.809L52.4507 15.0199C52.4284 15.0574 52.3748 15.0642 52.3428 15.0337C52.2999 14.9927 52.2266 15.0213 52.226 15.0793L51.8725 48.055C51.8714 48.1499 51.9517 48.2276 52.0509 48.2276H52.3739C52.3953 48.2276 52.4164 48.2236 52.4366 48.2165L53.0049 48.0128C53.0744 47.9879 53.1207 47.9245 53.1207 47.8533L53.2096 15.6386C53.2096 15.6175 53.2058 15.5966 53.1979 15.5769Z" fill="#F7B14C"/>
<path d="M49.7274 15.0134L49.3701 48.0564L49.7274 48.1427L50.0844 14.4971L49.7274 15.0134Z" fill="#F7F7EB"/>
<path d="M49.9967 14.6692L49.7289 48.2273L50.3537 48.3133L50.711 15.9488L50.3537 14.5831L50.0859 14.4971L49.9967 14.6692Z" fill="#F7DF8B"/>
<path d="M50.7075 15.3757L50.6324 15.9502C50.6257 16.0025 50.6445 16.0549 50.6835 16.0921L50.7474 16.1535C50.7812 16.1857 50.7999 16.2295 50.7996 16.2751L50.6225 48.0553C50.6222 48.1499 50.7023 48.227 50.8011 48.227H51.6949C51.7926 48.227 51.8724 48.1516 51.8733 48.0578L52.2282 15.1297C52.2285 15.106 52.2235 15.0825 52.2138 15.0607L51.99 14.561C51.9712 14.5194 51.936 14.4865 51.892 14.4697L51.5679 14.3457C51.5333 14.3324 51.4949 14.3299 51.4585 14.3386L51.2408 14.3906C51.188 14.4032 51.144 14.4382 51.1217 14.4856L50.7222 15.3263C50.7146 15.342 50.7099 15.3587 50.7075 15.3757Z" fill="#F7D14C"/>
<path d="M49.4603 15.6921L49.2822 48.0133C49.2819 48.0844 49.342 48.1421 49.4163 48.1421C49.4899 48.1421 49.5497 48.0853 49.55 48.0147L49.7281 15.6067L49.4603 15.6921Z" fill="#D19146"/>
<path d="M50.8019 16.0339H50.534L50.3563 48.1845C50.3557 48.2553 50.4158 48.313 50.49 48.313C50.5637 48.313 50.6235 48.2562 50.6241 48.1859L50.8019 16.0339Z" fill="#D19146"/>
<path d="M53.1201 15.6067V47.9142C53.1201 47.975 53.1847 48.0162 53.2433 47.9933C53.2768 47.9799 53.2988 47.9487 53.2988 47.9142V15.6067H53.1201Z" fill="#D19146"/>
<path d="M50.413 48.2187L49.4479 47.9344C49.3655 47.9104 49.2821 47.9693 49.2821 48.0519C49.2821 48.1053 49.3188 48.1527 49.3725 48.1687L50.413 48.475C50.4326 48.4807 50.4532 48.4833 50.4737 48.4825L52.369 48.3999C52.3939 48.3987 52.4186 48.3927 52.4409 48.3822L53.2526 47.9939C53.2816 47.9799 53.2998 47.9519 53.2998 47.921C53.2998 47.8633 53.2388 47.8238 53.1827 47.8453L52.435 48.1313C52.4162 48.1384 52.3966 48.1427 52.3766 48.1436L50.4737 48.2262C50.4532 48.227 50.4326 48.2244 50.413 48.2187Z" fill="#D19146"/>
<path d="M52.4071 26.7077V48.1998C52.4071 48.2564 52.4637 48.2973 52.5206 48.2821C52.559 48.2715 52.5857 48.2378 52.5857 48.1998V26.7077C52.5857 26.6606 52.5458 26.6223 52.4965 26.6223C52.4473 26.6223 52.4071 26.6606 52.4071 26.7077Z" fill="#D19146"/>
<path d="M50.8891 10.8245L50.5353 11.9246C50.533 11.9312 50.5321 11.9382 50.5321 11.9452C50.5321 12.0063 50.608 12.0382 50.655 11.9967L51.635 11.1314C51.6717 11.0991 51.6925 11.0536 51.6925 11.0059V10.8502C51.6925 10.8332 51.6899 10.8162 51.6846 10.8L51.3355 9.71436L50.8891 10.8245Z" fill="#575656"/>
<path d="M51.0673 11.6781L50.7103 14.6669L50.9782 14.5815L51.1565 14.4107L51.5138 14.3253L51.96 14.4107L52.1386 14.6669L52.4064 14.7523L51.5138 11.0803L51.0673 11.6781Z" fill="#F5E8C3"/>
<path d="M52.4089 14.8388L51.5159 11.0815L51.6054 10.9961L52.8553 14.4973L52.4089 14.8388Z" fill="#E9CC9C"/>
<path d="M50.711 12.02L49.9072 14.3257L50.711 14.6673L51.068 11.6785L50.711 12.02Z" fill="#F7F1D8"/>
<path d="M49.5481 14.855L49.4604 15.6915L49.5053 15.7342C49.5299 15.7578 49.5698 15.7578 49.5945 15.7342L49.6129 15.7165C49.6273 15.7027 49.6508 15.7027 49.6652 15.7165C49.6886 15.7388 49.7282 15.723 49.7282 15.6915V15.0652C49.7282 15.0283 49.7408 14.9923 49.764 14.9628L49.9867 14.6791C49.9928 14.6709 49.9987 14.6621 50.0034 14.653L50.0163 14.6284C50.0559 14.5524 50.148 14.5159 50.2325 14.5428L50.2448 14.5468C50.3111 14.5679 50.3583 14.6238 50.366 14.69L50.5223 16.0374C50.5261 16.0701 50.5678 16.084 50.5921 16.0608C50.6083 16.0455 50.6341 16.0455 50.6502 16.0608L50.6977 16.1064C50.7059 16.1141 50.7168 16.1185 50.7282 16.1185C50.7447 16.1185 50.7596 16.1096 50.767 16.0956L50.7998 16.0331L50.7168 15.3978C50.7127 15.3665 50.7177 15.3347 50.7312 15.306L51.121 14.4856C51.1436 14.4382 51.1876 14.4032 51.2404 14.3906L51.4578 14.3386C51.4945 14.3298 51.5326 14.3324 51.5675 14.3457L51.8916 14.4697C51.9356 14.4865 51.9708 14.5193 51.9893 14.561L52.2137 15.0615C52.2231 15.0828 52.2281 15.1056 52.2281 15.1288V15.1764C52.2281 15.2304 52.2601 15.2798 52.3105 15.3039L52.3217 15.3092C52.3724 15.3335 52.4337 15.324 52.4739 15.2856C52.4886 15.2717 52.4995 15.2548 52.5059 15.2362L52.5813 15.0197C52.6367 14.8604 52.8741 14.8653 52.9225 15.0268L53.099 15.6184C53.109 15.6512 53.1518 15.6618 53.1771 15.6377L53.1879 15.6274C53.2002 15.6156 53.2202 15.6156 53.2325 15.6274C53.2448 15.6392 53.2648 15.6392 53.2771 15.6274L53.2994 15.6061L51.6925 10.824L51.6033 10.9948L52.6581 14.0218C52.669 14.0526 52.6702 14.0857 52.662 14.1172L52.5854 14.4106L52.5329 14.5606C52.4842 14.7006 52.285 14.7194 52.2085 14.5913L52.0835 14.3818C52.0618 14.3453 52.0266 14.3178 51.9849 14.3045L51.8092 14.2485C51.791 14.2427 51.772 14.2398 51.7529 14.2398H51.4466C51.432 14.2398 51.4176 14.2415 51.4032 14.2449L51.126 14.3112C51.0882 14.3202 51.0544 14.341 51.0298 14.3702L50.8849 14.5437C50.8033 14.641 50.6438 14.6249 50.5857 14.5134L50.5648 14.4738C50.5437 14.4333 50.5068 14.4025 50.4616 14.3882L50.3126 14.3407C50.2809 14.3306 50.2469 14.3293 50.2143 14.3371C50.0802 14.3691 49.9617 14.2478 50.004 14.1221L50.6971 12.0588C50.7059 12.033 50.7209 12.0095 50.7409 11.9903L50.9782 11.7633L51.0571 11.6879C51.0641 11.6813 51.0703 11.6741 51.0761 11.6664L51.2909 11.379L51.5138 11.0801L50.9122 11.738C50.8969 11.7547 50.8784 11.7684 50.8576 11.7783L50.7482 11.8307C50.7232 11.8425 50.696 11.8487 50.6684 11.8487H50.6628C50.5848 11.8487 50.5159 11.8971 50.4927 11.9683L49.5554 14.8208C49.5516 14.8319 49.5493 14.8434 49.5481 14.855Z" fill="#DBBD8D"/>
</svg>
