<svg width="192" height="95" viewBox="0 0 192 95" fill="none" xmlns="http://www.w3.org/2000/svg">
<g clip-path="url(#clip0_61_370)">
<path d="M110.092 92.9684C108.904 92.9676 107.764 92.4953 106.924 91.6553C106.084 90.8154 105.612 89.6765 105.612 88.489C105.612 87.3016 106.084 86.1627 106.924 85.3228C107.764 84.4828 108.904 84.0105 110.092 84.0097H176.676C176.341 83.3954 175.846 82.8825 175.245 82.525C174.643 82.1676 173.956 81.9786 173.256 81.9781H40.9049C39.1782 81.9801 37.5228 82.6669 36.3026 83.8878C35.0824 85.1086 34.3971 86.7636 34.3973 88.489C34.3982 90.2142 35.0839 91.8685 36.3038 93.0891C37.5238 94.3097 39.1785 94.9969 40.9049 95H173.256C173.956 94.9994 174.643 94.8105 175.245 94.453C175.846 94.0955 176.341 93.5827 176.676 92.9684L110.092 92.9684Z" fill="#FFD14B"/>
<path d="M176.764 86.478H113.458C113.362 86.4777 113.269 86.4391 113.2 86.3706C113.132 86.302 113.093 86.2091 113.093 86.1123C113.093 86.0155 113.132 85.9226 113.2 85.8541C113.269 85.7855 113.362 85.7469 113.458 85.7466H176.764C176.861 85.7469 176.954 85.7855 177.022 85.8541C177.091 85.9226 177.129 86.0155 177.129 86.1123C177.129 86.2091 177.091 86.302 177.022 86.3706C176.954 86.4391 176.861 86.4777 176.764 86.478Z" fill="#CCCCCC"/>
<path d="M176.764 88.8547H113.458C113.361 88.8547 113.268 88.8162 113.2 88.7476C113.131 88.6791 113.092 88.586 113.092 88.4891C113.092 88.3921 113.131 88.2991 113.2 88.2305C113.268 88.1619 113.361 88.1234 113.458 88.1234H176.764C176.861 88.1234 176.954 88.1619 177.023 88.2305C177.091 88.2991 177.13 88.3921 177.13 88.4891C177.13 88.586 177.091 88.6791 177.023 88.7476C176.954 88.8162 176.861 88.8547 176.764 88.8547Z" fill="#CCCCCC"/>
<path d="M176.764 91.2315H113.458C113.362 91.2313 113.269 91.1926 113.2 91.1241C113.132 91.0555 113.093 90.9627 113.093 90.8658C113.093 90.769 113.132 90.6761 113.2 90.6076C113.269 90.539 113.362 90.5004 113.458 90.5002H176.764C176.861 90.5004 176.954 90.539 177.022 90.6076C177.091 90.6761 177.129 90.769 177.129 90.8658C177.129 90.9627 177.091 91.0555 177.022 91.1241C176.954 91.1926 176.861 91.2313 176.764 91.2315Z" fill="#CCCCCC"/>
<path d="M92.8932 80.3531C91.7048 80.3523 90.5655 79.88 89.7255 79.0401C88.8855 78.2001 88.4136 77.0612 88.4136 75.8738C88.4136 74.6863 88.8855 73.5475 89.7255 72.7075C90.5655 71.8676 91.7048 71.3953 92.8932 71.3945H159.477C159.142 70.7801 158.648 70.2673 158.046 69.9098C157.444 69.5523 156.757 69.3634 156.057 69.3629H23.7063C21.9796 69.3648 20.3242 70.0517 19.104 71.2725C17.8838 72.4933 17.1984 74.1483 17.1986 75.8738C17.1995 77.5989 17.8852 79.2533 19.1052 80.4739C20.3252 81.6945 21.9799 82.3817 23.7063 82.3847H156.057C156.757 82.3842 157.444 82.1952 158.046 81.8378C158.648 81.4803 159.142 80.9674 159.477 80.3531L92.8932 80.3531Z" fill="#18EDE0"/>
<path d="M159.565 73.8627H96.2597C96.1628 73.8625 96.07 73.8238 96.0016 73.7553C95.9331 73.6867 95.8947 73.5939 95.8947 73.497C95.8947 73.4002 95.9331 73.3073 96.0016 73.2388C96.07 73.1702 96.1628 73.1316 96.2597 73.1314H159.565C159.662 73.1314 159.756 73.1699 159.824 73.2385C159.893 73.307 159.931 73.4001 159.931 73.497C159.931 73.594 159.893 73.687 159.824 73.7556C159.756 73.8242 159.662 73.8627 159.565 73.8627Z" fill="#CCCCCC"/>
<path d="M159.565 76.2395H96.2597C96.1627 76.2395 96.0696 76.201 96.001 76.1324C95.9324 76.0638 95.8938 75.9708 95.8938 75.8738C95.8938 75.7769 95.9324 75.6838 96.001 75.6153C96.0696 75.5467 96.1627 75.5082 96.2597 75.5082H159.565C159.662 75.5082 159.756 75.5467 159.824 75.6153C159.893 75.6838 159.931 75.7769 159.931 75.8738C159.931 75.9708 159.893 76.0638 159.824 76.1324C159.756 76.201 159.662 76.2395 159.565 76.2395Z" fill="#CCCCCC"/>
<path d="M159.565 78.6163H96.2597C96.1628 78.616 96.07 78.5774 96.0016 78.5089C95.9331 78.4403 95.8947 78.3474 95.8947 78.2506C95.8947 78.1538 95.9331 78.0609 96.0016 77.9924C96.07 77.9238 96.1628 77.8852 96.2597 77.8849H159.565C159.614 77.8848 159.661 77.8942 159.706 77.9125C159.75 77.9309 159.791 77.9578 159.825 77.9917C159.859 78.0257 159.886 78.066 159.904 78.1105C159.923 78.1549 159.932 78.2025 159.932 78.2506C159.932 78.2987 159.923 78.3463 159.904 78.3908C159.886 78.4352 159.859 78.4755 159.825 78.5095C159.791 78.5435 159.75 78.5704 159.706 78.5887C159.661 78.607 159.614 78.6164 159.565 78.6163Z" fill="#CCCCCC"/>
<path d="M75.6946 67.3169C74.5062 67.3161 73.3668 66.8438 72.5268 66.0038C71.6869 65.1639 71.215 64.025 71.215 62.8376C71.215 61.6501 71.6869 60.5112 72.5268 59.6713C73.3668 58.8313 74.5062 58.359 75.6946 58.3582H142.278C141.943 57.7439 141.449 57.2311 140.847 56.8736C140.246 56.5161 139.559 56.3272 138.859 56.3266H6.50757C4.78084 56.3286 3.12552 57.0154 1.9053 58.2363C0.685076 59.4571 -0.000214839 61.1121 5.05225e-08 62.8375C0.000873656 64.5627 0.686514 66.217 1.9065 67.4376C3.12648 68.6582 4.78118 69.3454 6.50757 69.3484H138.859C139.559 69.3479 140.246 69.159 140.847 68.8015C141.449 68.444 141.943 67.9312 142.278 67.3169L75.6946 67.3169Z" fill="#FAFAFA"/>
<path d="M142.367 60.8265H79.0611C78.9642 60.8262 78.8713 60.7876 78.8029 60.7191C78.7345 60.6505 78.696 60.5576 78.696 60.4608C78.696 60.364 78.7345 60.2711 78.8029 60.2026C78.8713 60.134 78.9642 60.0954 79.0611 60.0952H142.367C142.464 60.0952 142.557 60.1337 142.625 60.2023C142.694 60.2708 142.733 60.3638 142.733 60.4608C142.733 60.5578 142.694 60.6508 142.625 60.7194C142.557 60.788 142.464 60.8265 142.367 60.8265Z" fill="#CCCCCC"/>
<path d="M142.367 63.2033H79.0611C79.013 63.2033 78.9654 63.1938 78.9211 63.1754C78.8767 63.1571 78.8363 63.1301 78.8023 63.0962C78.7684 63.0622 78.7414 63.0219 78.723 62.9775C78.7046 62.9332 78.6952 62.8856 78.6952 62.8376C78.6952 62.7896 78.7046 62.742 78.723 62.6977C78.7414 62.6533 78.7684 62.613 78.8023 62.5791C78.8363 62.5451 78.8767 62.5182 78.9211 62.4998C78.9654 62.4814 79.013 62.472 79.0611 62.472H142.367C142.415 62.472 142.462 62.4814 142.507 62.4998C142.551 62.5182 142.592 62.5451 142.625 62.5791C142.659 62.613 142.686 62.6533 142.705 62.6977C142.723 62.742 142.733 62.7896 142.733 62.8376C142.733 62.8856 142.723 62.9332 142.705 62.9775C142.686 63.0219 142.659 63.0622 142.625 63.0962C142.592 63.1301 142.551 63.1571 142.507 63.1754C142.462 63.1938 142.415 63.2033 142.367 63.2033Z" fill="#CCCCCC"/>
<path d="M142.367 65.58H79.0611C78.964 65.58 78.871 65.5415 78.8023 65.4729C78.7337 65.4043 78.6952 65.3113 78.6952 65.2144C78.6952 65.1174 78.7337 65.0244 78.8023 64.9558C78.871 64.8872 78.964 64.8487 79.0611 64.8487H142.367C142.415 64.8487 142.462 64.8582 142.507 64.8765C142.551 64.8949 142.592 64.9218 142.625 64.9558C142.659 64.9898 142.686 65.0301 142.705 65.0744C142.723 65.1188 142.733 65.1663 142.733 65.2144C142.733 65.2624 142.723 65.3099 142.705 65.3543C142.686 65.3987 142.659 65.439 142.625 65.4729C142.592 65.5069 142.551 65.5338 142.507 65.5522C142.462 65.5706 142.415 65.58 142.367 65.58Z" fill="#CCCCCC"/>
<path d="M143.829 39.507C143.481 39.5064 143.147 39.3741 142.894 39.1367C142.641 38.8993 142.487 38.5746 142.465 38.2284L142.261 35.1286C142.238 34.7666 142.359 34.41 142.598 34.1372C142.838 33.8644 143.176 33.6978 143.538 33.6741L167.841 32.0837C168.224 32.0586 168.608 32.1092 168.972 32.2325C169.335 32.3559 169.671 32.5496 169.959 32.8025C170.248 33.0555 170.484 33.3628 170.654 33.7068C170.824 34.0509 170.924 34.425 170.949 34.8078C170.974 35.1906 170.923 35.5746 170.8 35.9379C170.677 36.3011 170.483 36.6365 170.23 36.9249C169.976 37.2133 169.669 37.4491 169.325 37.6188C168.98 37.7884 168.606 37.8886 168.223 37.9137L143.92 39.504C143.89 39.5059 143.859 39.5069 143.829 39.507Z" fill="#FFD14B"/>
<path d="M148.621 39.9066C148.267 39.906 147.927 39.7686 147.672 39.5231C147.417 39.2776 147.267 38.9431 147.253 38.5896L147.08 33.9598C147.073 33.7803 147.102 33.6012 147.165 33.4327C147.227 33.2643 147.322 33.1099 147.445 32.9782C147.567 32.8465 147.714 32.7402 147.877 32.6653C148.041 32.5904 148.217 32.5484 148.397 32.5417L168.382 31.7953C168.745 31.7818 169.098 31.9129 169.364 32.1597C169.63 32.4064 169.788 32.7488 169.801 33.1114L169.974 37.7411C169.981 37.9207 169.952 38.0997 169.89 38.2682C169.827 38.4366 169.732 38.5911 169.61 38.7227C169.487 38.8544 169.34 38.9607 169.177 39.0356C169.014 39.1105 168.837 39.1525 168.657 39.1592L148.673 39.9056C148.655 39.9063 148.638 39.9066 148.621 39.9066Z" fill="#18EDE0"/>
<path d="M172.04 82.5845H168.931C168.568 82.5841 168.22 82.4399 167.963 82.1834C167.707 81.9269 167.562 81.5792 167.562 81.2165V55.3265C167.562 54.9638 167.707 54.6161 167.963 54.3596C168.22 54.1032 168.568 53.9589 168.931 53.9585H172.04C172.403 53.9589 172.751 54.1032 173.007 54.3596C173.264 54.6161 173.408 54.9638 173.409 55.3265V81.2165C173.408 81.5792 173.264 81.9269 173.007 82.1834C172.751 82.4399 172.403 82.5841 172.04 82.5845Z" fill="#2F2E41"/>
<path d="M158.242 68.8993L155.583 67.2891C155.273 67.1008 155.05 66.7972 154.964 66.4449C154.877 66.0927 154.934 65.7205 155.122 65.4101L168.552 43.2698C168.74 42.9599 169.044 42.7373 169.397 42.6509C169.749 42.5645 170.122 42.6214 170.432 42.809L173.091 44.4192C173.401 44.6076 173.624 44.9112 173.71 45.2634C173.797 45.6157 173.74 45.9878 173.552 46.2982L160.122 68.4385C159.933 68.7485 159.63 68.9711 159.277 69.0575C158.925 69.1438 158.552 69.087 158.242 68.8993Z" fill="#2F2E41"/>
<path d="M167.318 26.9395C173.251 26.9395 178.06 22.1339 178.06 16.2058C178.06 10.2778 173.251 5.47218 167.318 5.47218C161.386 5.47218 156.577 10.2778 156.577 16.2058C156.577 22.1339 161.386 26.9395 167.318 26.9395Z" fill="#FFD14B"/>
<path d="M161.504 19.8707C161.158 19.7573 160.841 19.5712 160.574 19.325C160.396 19.1493 160.26 18.9369 160.173 18.7028C160.087 18.4687 160.053 18.2186 160.073 17.9699C160.084 17.7927 160.136 17.6205 160.225 17.4667C160.314 17.313 160.437 17.1819 160.585 17.0836C160.969 16.8374 161.483 16.8366 162.006 17.067L161.986 12.8767L162.408 12.8747L162.431 17.8008L162.106 17.5968C161.73 17.3606 161.193 17.1944 160.813 17.4379C160.719 17.5022 160.641 17.5873 160.586 17.6866C160.53 17.7858 160.498 17.8966 160.492 18.0101C160.478 18.1954 160.504 18.3815 160.568 18.5559C160.633 18.7303 160.734 18.8887 160.865 19.0206C161.33 19.4646 162.008 19.6034 162.782 19.7275L162.715 20.143C162.304 20.0886 161.899 19.9975 161.504 19.8707Z" fill="#2F2E41"/>
<path d="M157.644 12.665L157.589 13.0822L159.838 13.3791L159.893 12.9618L157.644 12.665Z" fill="#2F2E41"/>
<path d="M164.744 13.6017L164.688 14.0189L166.938 14.3157L166.993 13.8985L164.744 13.6017Z" fill="#2F2E41"/>
<path d="M176.288 62.2729H158.174C157.7 62.2723 157.245 62.0837 156.909 61.7483C156.573 61.4129 156.385 60.9582 156.384 60.4839L160.176 31.4264C160.179 30.9542 160.369 30.5025 160.704 30.1698C161.04 29.8372 161.493 29.6506 161.965 29.651H168.394C170.961 29.6539 173.423 30.6744 175.238 32.4886C177.054 34.3027 178.075 36.7625 178.078 39.3281V60.4839C178.077 60.9582 177.888 61.4129 177.553 61.7483C177.217 62.0837 176.762 62.2723 176.288 62.2729Z" fill="#18EDE0"/>
<path d="M191.871 50.823C191.983 51.0623 192.024 51.3288 191.987 51.5904C191.951 51.8521 191.84 52.0977 191.668 52.2977L189.635 54.6483C189.518 54.7842 189.375 54.8957 189.214 54.9764C189.053 55.057 188.878 55.1052 188.699 55.1183C188.52 55.1314 188.34 55.109 188.169 55.0525C187.998 54.9961 187.84 54.9065 187.704 54.7891L169.275 38.8786C168.984 38.6279 168.746 38.3224 168.574 37.9796C168.401 37.6368 168.298 37.2634 168.27 36.8807C168.242 36.4981 168.29 36.1137 168.411 35.7495C168.531 35.3853 168.723 35.0484 168.974 34.7581C169.225 34.4677 169.53 34.2297 169.873 34.0575C170.217 33.8853 170.59 33.7823 170.973 33.7544C171.356 33.7265 171.741 33.7743 172.105 33.895C172.47 34.0157 172.807 34.2069 173.097 34.4578L191.527 50.3681C191.672 50.4937 191.79 50.6487 191.871 50.823Z" fill="#FFD14B"/>
<path d="M187.804 45.5724C187.916 45.8117 187.956 46.0782 187.92 46.3398C187.884 46.6014 187.773 46.8471 187.6 47.0471L184.129 51.062C183.891 51.3362 183.554 51.505 183.192 51.5314C182.83 51.5578 182.473 51.4396 182.198 51.2028L167.065 38.138C166.929 38.0206 166.817 37.8775 166.736 37.717C166.656 37.5565 166.607 37.3816 166.594 37.2024C166.581 37.0233 166.603 36.8433 166.66 36.6727C166.717 36.5022 166.806 36.3444 166.924 36.2085L170.395 32.1936C170.512 32.0577 170.656 31.9462 170.816 31.8655C170.977 31.7849 171.152 31.7366 171.331 31.7236C171.511 31.7105 171.691 31.7328 171.861 31.7893C172.032 31.8458 172.19 31.9354 172.326 32.0528L187.459 45.1176C187.605 45.2432 187.722 45.3982 187.804 45.5724Z" fill="#18EDE0"/>
<path d="M167.519 9.83977C166.083 8.65237 164.164 9.7754 162.54 9.61601C160.986 9.46352 159.736 8.09732 159.395 6.62715C158.998 4.91196 159.859 3.16966 161.157 2.07091C162.579 0.867513 164.488 0.493556 166.307 0.676674C168.392 0.886548 170.312 1.8193 172.042 2.95879C173.71 4.02364 175.249 5.27783 176.629 6.69633C177.866 8.00989 178.922 9.58355 179.284 11.3759C179.613 13.0047 179.42 14.8202 178.479 16.2232C177.98 16.9426 177.304 17.5214 176.516 17.9035C175.694 18.3261 174.815 18.6338 174.021 19.109C172.819 19.8276 171.666 21.2922 172.075 22.7857C172.163 23.112 172.33 23.4118 172.561 23.6585C172.838 23.9548 173.321 23.5471 173.043 23.25C172.554 22.7282 172.559 22.0198 172.802 21.3811C173.092 20.6611 173.618 20.0607 174.294 19.6784C175.126 19.182 176.048 18.8679 176.902 18.4139C177.719 17.9986 178.424 17.392 178.956 16.6459C179.96 15.194 180.233 13.324 179.967 11.6039C179.678 9.7426 178.686 8.06504 177.456 6.66682C176.118 5.14517 174.485 3.8666 172.82 2.72176C171.034 1.49333 169.066 0.463456 166.904 0.118506C165.03 -0.180512 163.009 0.0638534 161.395 1.11203C159.888 2.09043 158.75 3.74589 158.669 5.57311C158.643 6.40427 158.839 7.22733 159.237 7.9576C159.635 8.68786 160.22 9.29893 160.933 9.72794C161.664 10.1465 162.509 10.3251 163.347 10.2386C164.243 10.1641 165.136 9.87245 166.041 9.93155C166.45 9.94858 166.842 10.0984 167.158 10.3584C167.472 10.6178 167.83 10.0971 167.519 9.83977Z" fill="#2F2E41"/>
<path d="M154.889 65.7842C154.892 65.7605 154.897 65.7368 154.902 65.7131C154.94 65.5373 155.012 65.3707 155.114 65.2229C155.216 65.0751 155.347 64.9491 155.498 64.8521L158.111 63.1684C158.416 62.9722 158.787 62.9049 159.141 62.9814C159.496 63.0579 159.806 63.2719 160.003 63.5765L168.062 76.0611C168.258 76.366 168.326 76.7365 168.249 77.0912C168.173 77.4458 167.958 77.7555 167.653 77.9522L165.041 79.636C164.736 79.8322 164.365 79.8994 164.01 79.8229C163.655 79.7464 163.345 79.5324 163.148 79.2279L155.09 66.7432C154.906 66.4597 154.834 66.1178 154.889 65.7842Z" fill="#2F2E41"/>
</g>
<defs>
<clipPath id="clip0_61_370">
<rect width="192" height="95" fill="white"/>
</clipPath>
</defs>
</svg>
